<svg version="1.0" xmlns="http://www.w3.org/2000/svg" width="1142.667" height="1142.667" viewBox="0 0 857 857"><path d="M426.7.6c-.1.1-5.6.4-12.2.8-11.7.6-13.5.8-21.2 2-2.1.3-5.6.9-7.8 1.2-8 1.1-29.3 6.7-40 10.6-23 8.3-49.4 23-68 37.7-32.3 25.6-58.4 59.6-74.4 97.1-2.9 6.8-11.7 33.4-12.4 37.5-.3 1.6-1.2 6.1-2 10-.9 3.8-1.8 9.2-2.1 12-.4 2.7-1.1 8.1-1.5 12-1.1 8.1-.9 411.7.2 418.4 2.3 15 4.1 24.5 5.8 31.1 2.5 9.6 8 27.2 8.9 28.5.4.5 1.7 3.7 3 7 3.8 9.8 13.6 28.2 20.7 39 33.6 50.6 83 86.6 139.8 102 9.6 2.6 21.1 5 28.5 6 2.5.3 5.2.8 6 1 2.3.6 22.6 1.8 30.5 1.8 7.6 0 26-1.1 29.2-1.7 1.1-.3 4.4-.7 7.4-1.1 16.2-2 43.4-9.8 61.4-17.7 38.9-17.1 72.8-44.2 98.6-78.8 14.3-19.2 25.3-40 33.9-64 3.2-9 4.7-14.2 7.7-26.4 1.2-5 4.2-22.8 5-29.6 1-9.5 1.1-407.1 0-416.5-.4-3.9-1.2-9.5-1.7-12.5-2.3-13.8-2.9-16.9-4.2-21.5-.6-2.2-1.1-4.5-1.3-5-.1-.6-.5-1.7-.8-2.5-.3-.8-.8-2.9-1.2-4.5-.9-4.1-7.1-20.9-10-27-1.3-2.8-3.3-7-4.4-9.5-10.4-23.2-32.4-52.6-55.7-74.1C559 33 507.3 8.6 464.5 3.5c-2.7-.3-6-.8-7.2-1-2.8-.6-30.1-2.3-30.6-1.9z"/></svg>