<svg width="160" height="160" fill="none" xmlns="http://www.w3.org/2000/svg"><path d="M76.156 17.116h1.96V12.55h2.665c3.013 0 4.503-1.82 4.503-4.218 0-2.392-1.478-4.206-4.497-4.206h-4.63v12.991zm1.96-6.229V5.806h2.462c1.94 0 2.733 1.053 2.733 2.525 0 1.471-.792 2.556-2.708 2.556h-2.487zm24.155 9.93l1.79.797 2-4.49 2.434 1.083.116.052.411 5.564 2.04.908-.492-5.975c1.694.108 2.958-.78 3.667-2.374.973-2.184.301-4.324-2.452-5.55l-4.23-1.883-5.284 11.868zm4.476-5.235l1.915-4.3 2.248 1.001c1.767.787 2.124 1.952 1.525 3.297-.596 1.339-1.672 1.79-3.416 1.013l-2.272-1.011zm30.971 14.375l-1.312-1.457-9.654 8.693 1.312 1.456 9.654-8.692zm14.148 23.249l-.655-2.015-10.911 8.461.7 2.154 13.8.431-.655-2.014-11.18-.17-.045-.138 8.946-6.709zm-8.027 29.986l3.295 1.545-.531 5.047-3.543.82-.217 2.07 13.408-3.292.237-2.252-12.431-6.007-.218 2.069zm4.875 2.285l5.314 2.485-.011.1-5.714 1.327.411-3.912zm-1.027 27.726l-2.023 3.505-9.79-5.652-.977 1.692 9.79 5.652-2.027 3.51 1.461.844 5.027-8.707-1.461-.844zm-26.635 15.955l-6.651 4.832.991 1.365 5.066-3.68 2.337 3.218-4.659 3.385.988 1.36 4.659-3.385 2.327 3.202-5.004 3.635.992 1.365 6.59-4.787-7.636-10.51zM94.49 145.471a3.23 3.23 0 00-2.48 3.82c.365 1.717 2.1 2.829 3.816 2.465 1.733-.369 2.85-2.088 2.484-3.804a3.22 3.22 0 00-3.82-2.481zm-22.47-2.177l-1.935-.412-4.698 8.95-.099-.021-.651-10.087-1.93-.41-6.231 11.957 2.023.43 4.562-9.322.118.025.482 10.394 1.998.425 4.666-9.294.118.026.384 10.366 2.017.429-.823-13.456zm-25.368-9.261L40 129.201l-.992 1.365 5.065 3.68-2.338 3.218-4.66-3.386-.987 1.36 4.66 3.386-2.327 3.202-5.004-3.635-.992 1.365 6.59 4.787 7.636-10.51zm-19.035-18.666l-3.574.686-2.537-4.395 2.384-2.746-1.04-1.802-8.914 10.544 1.133 1.961 13.588-2.446-1.04-1.802zm-5.288 1.016l-5.759 1.113-.05-.088 3.843-4.431 1.966 3.406zM17.951 90.74l-.82-7.804-1.678.176.615 5.855-11.242 1.181.205 1.95 12.92-1.358zM7.956 62.28l1.25-3.85 10.751 3.493.604-1.858-10.75-3.493 1.252-3.855-1.605-.521-3.106 9.562 1.604.521zm21.94-20.26l1.312-1.456-4.21-3.79 4.334-4.813 4.21 3.79 1.315-1.461-9.654-8.693-1.316 1.461 4.196 3.778-4.334 4.813-4.195-3.777-1.312 1.456 9.654 8.693zm23.386-22.363a3.23 3.23 0 001.632-4.252c-.714-1.603-2.642-2.331-4.245-1.617-1.618.72-2.353 2.634-1.64 4.237a3.22 3.22 0 004.253 1.632z" fill="#000"/></svg>