<svg width="160" height="160" fill="none" xmlns="http://www.w3.org/2000/svg"><path d="M75.852 17.116h7.846V15.43h-5.886V4.125h-1.96v12.991zm24.419 3.343l2.418-2.72 4.688 1.942-.22 3.63 1.922.796.653-13.791-2.093-.867-9.29 10.213 1.922.797zm3.576-4.026l3.892-4.389.093.04-.351 5.854-3.634-1.505zm17.116 15.832l1.4 1.4 8.813-4.948.072.072-4.947 8.814 1.395 1.395 11.738-6.634-1.462-1.462-8.904 5.333-.085-.086 5.257-8.98-1.444-1.444-8.976 5.253-.085-.086 5.324-8.903-1.457-1.458-6.639 11.734zm16.587 23.142c.45 1.084 1.311 2.135 2.402 2.63l-.615 1.202.821 1.981 1.333-2.55c.891.228 2.159.273 3.823-.417l-.655-1.582a4.941 4.941 0 01-2.322.378l1.876-3.592.944.57c1.139.696 2.225.946 3.367.473 1.401-.58 2.146-2.214 1.381-4.06-.757-1.828-2.433-2.542-4.091-1.855-1.073.444-1.69 1.359-2.297 2.496-1.517-.978-2.788-1.543-4.218-.95-1.928.798-2.749 2.861-1.749 5.276zm3.154 1.165c-.773-.408-1.363-1.035-1.668-1.774-.539-1.3-.006-2.517 1.031-2.947.369-.153 1.236-.148 2.316.503l.366.22-2.045 3.998zm4.275-4.565c.442-.822.88-1.505 1.49-1.757a1.536 1.536 0 011.988.838c.335.809-.08 1.598-.642 1.831-.715.297-1.311.084-2.009-.39l-.827-.522zm9.209 23.208v4.047h-11.304v1.954h11.304v4.053h1.687V75.215h-1.687zm-14.65 25.849l2.72 2.418-1.942 4.688-3.631-.22-.796 1.922 13.791.653.867-2.093-10.213-9.29-.796 1.922zm4.025 3.576l4.389 3.892-.039.093-5.855-.351 1.505-3.634zm-7.78 27.445l1.605-1.606-7.504-1.682-1.664-7.522-1.615 1.615 1.337 5.75-.072.072-5.75-1.337-1.615 1.615 7.473 1.713 1.731 7.455 1.606-1.606-1.395-5.791.072-.071 5.791 1.395zm-30.561 9.743a3.23 3.23 0 00-1.743 4.208c.672 1.621 2.58 2.399 4.202 1.728 1.636-.678 2.421-2.572 1.749-4.193a3.22 3.22 0 00-4.208-1.743zm-17.488.332l-7.836.421.09 1.685 5.879-.316.605 11.288 1.958-.105-.696-12.973zm-24.554-2.033l-2.269 2.846-4.785-1.688.024-3.637-1.962-.692.088 13.806 2.135.753 8.73-10.696-1.962-.692zm-3.356 4.211l-3.65 4.591-.096-.034.037-5.865 3.71 1.308zm-17.949-14.887l-1.472-1.323-8.536 5.413-.076-.068 4.468-9.066-1.468-1.318-11.365 7.253 1.538 1.382 8.605-5.803.09.081-4.769 9.248 1.52 1.365 8.681-5.726.09.081-4.84 9.176 1.534 1.377 6-12.072zm-17.797-22.218c-.507-1.059-1.423-2.062-2.539-2.499l.55-1.233-.926-1.934-1.194 2.618c-.902-.18-2.171-.157-3.796.621l.74 1.545a4.942 4.942 0 012.298-.502l-1.682 3.687-.972-.519c-1.175-.633-2.273-.825-3.389-.291-1.367.654-2.023 2.325-1.16 4.128.854 1.785 2.565 2.408 4.184 1.633 1.047-.501 1.614-1.447 2.16-2.615 1.567.895 2.866 1.391 4.263.723 1.882-.901 2.591-3.005 1.463-5.362zm-3.212-.995c.794.365 1.417.961 1.762 1.682.607 1.27.14 2.513-.872 2.998-.36.172-1.227.214-2.34-.378l-.377-.2 1.827-4.102zm-4.023 4.787c-.398.845-.8 1.55-1.394 1.835a1.537 1.537 0 01-2.03-.731c-.378-.789-.007-1.6.543-1.863.698-.334 1.305-.153 2.026.282l.855.477zM6.404 88.343l-.217-4.041 11.287-.606-.104-1.95-11.288.605-.217-4.047-1.685.09.539 10.04 1.685-.09zm13.243-26.597L16.8 59.477l1.688-4.785 3.637.025.692-1.962-13.807.087-.753 2.136 10.697 8.73.692-1.962zm-4.211-3.355l-4.592-3.651.034-.096 5.866.038-1.309 3.709zm6.294-27.822l-1.518 1.69 7.584 1.277 2.064 7.422 1.526-1.699-1.642-5.67.067-.076 5.814 1.027 1.526-1.7-7.554-1.31-2.128-7.35-1.518 1.689 1.704 5.707-.068.076-5.857-1.083zm30.003-11.371a3.23 3.23 0 001.515-4.295c-.758-1.583-2.705-2.258-4.288-1.5-1.598.764-2.28 2.697-1.522 4.28a3.22 3.22 0 004.295 1.515z" fill="#000"/></svg>