<svg width="160" height="160" fill="none" xmlns="http://www.w3.org/2000/svg"><path d="M85.787 8.348c-.444-2.779-2.62-4.403-5.367-4.403-3.362 0-5.842 2.519-5.842 6.673 0 4.155 2.468 6.674 5.842 6.674 2.855 0 4.942-1.79 5.367-4.358l-1.98-.007c-.336 1.662-1.731 2.576-3.374 2.576-2.227 0-3.908-1.707-3.908-4.885 0-3.152 1.675-4.884 3.914-4.884 1.656 0 3.045.933 3.369 2.614h1.979zm22.647 7.92c1.349-3.93-.185-7.119-3.365-8.21-3.192-1.096-6.355.48-7.704 4.41-1.348 3.924.178 7.117 3.37 8.212 3.18 1.092 6.35-.482 7.699-4.412zm-1.836-.63c-1.028 2.993-3.17 4.076-5.282 3.35-2.118-.726-3.137-2.894-2.11-5.888 1.028-2.994 3.164-4.078 5.282-3.35 2.112.724 3.138 2.894 2.11 5.888zm9.181 12.152l1.546 1.205 3.02-3.88 2.102 1.637.1.078-.937 5.5 1.762 1.371.958-5.918c1.618.512 3.058-.047 4.13-1.424 1.469-1.887 1.33-4.125-1.048-5.976l-3.654-2.844-7.979 10.252zm5.602-4.006l2.891-3.714 1.942 1.511c1.527 1.189 1.593 2.405.689 3.567-.9 1.156-2.053 1.336-3.56.163l-1.962-1.527zm9.556 18.364l1.072 1.641 3.823-2.498 1.458 2.23c1.648 2.523 3.987 2.775 5.994 1.464 2.002-1.308 2.713-3.538 1.061-6.065l-2.533-3.877-10.875 7.105zm6.287-1.766l4.253-2.779 1.346 2.06c1.062 1.626.614 2.865-.618 3.67-1.232.805-2.573.735-3.621-.869l-1.36-2.082zm12.164 28.457c4.028-1.02 5.859-4.049 5.034-7.308-.829-3.271-3.879-5.057-7.907-4.037-4.021 1.018-5.86 4.042-5.031 7.314.825 3.258 3.877 5.05 7.904 4.03zm-.476-1.882c-3.069.777-5.146-.424-5.694-2.589-.55-2.17.707-4.21 3.775-4.987 3.069-.777 5.145.419 5.695 2.59.548 2.164-.708 4.21-3.776 4.986zm-5.148 14.341l-.162 1.954 4.9.406-.22 2.655-.011.126-5.117 2.224-.184 2.225 5.478-2.436c.456 1.636 1.712 2.536 3.451 2.68 2.383.197 4.181-1.143 4.43-4.146l.382-4.615-12.947-1.073zm6.419 2.499l4.691.389-.203 2.452c-.16 1.929-1.143 2.65-2.609 2.528-1.461-.121-2.242-.988-2.084-2.89l.205-2.479zM139.838 102.3l2.669 2.473-2.038 4.648-3.625-.295-.836 1.905 13.775.937.909-2.073-10.019-9.5-.835 1.905zm3.95 3.659l4.308 3.981-.041.093-5.847-.473 1.58-3.601zm-5.061 21.14l-2.741 2.978-8.316-7.656-1.323 1.438 8.316 7.655-2.745 2.983 1.241 1.142 6.81-7.397-1.242-1.143zm-24.621 6.983l-7.23 3.913.803 1.484 5.506-2.98 1.893 3.498-5.065 2.742.8 1.478 5.065-2.741 1.884 3.481-5.439 2.943.803 1.484 7.163-3.876-6.183-11.426zM91.485 146.22a3.23 3.23 0 00-2.647 3.707c.29 1.731 1.973 2.919 3.704 2.63 1.747-.291 2.938-1.959 2.65-3.69a3.22 3.22 0 00-3.707-2.647zm-25.843 5.593l-1.864-.311c-.286 2.062 1.28 3.854 3.882 4.288 2.572.429 4.788-.712 5.157-2.921.297-1.783-.805-3.041-2.77-3.941l-1.446-.666c-1.31-.592-2.291-1.218-2.102-2.357.21-1.252 1.542-1.878 3.188-1.603 1.489.248 2.617 1.118 2.497 2.532l1.94.324c.262-2.342-1.295-4.075-4.167-4.554-3.01-.502-5.007.791-5.369 2.963-.385 2.308 1.524 3.547 3.084 4.218l1.197.535c.958.423 2.213 1.115 2.002 2.34-.182 1.089-1.311 1.73-2.888 1.467-1.47-.246-2.4-1.108-2.34-2.314zm-11.779-13.785l-7.23-3.913-.803 1.484 5.506 2.98-1.893 3.498-5.066-2.742-.8 1.479 5.066 2.741-1.884 3.481-5.44-2.943-.803 1.484 7.164 3.876 6.183-11.425zm-17.141-11.573l-1.328-1.442-3.616 3.33-1.805-1.96-.086-.094 1.83-5.271-1.512-1.642-1.919 5.68c-1.512-.772-3.025-.457-4.308.724-1.76 1.62-1.99 3.85.05 6.067l3.136 3.407 9.558-8.799zm-6.186 3.031l-3.463 3.187-1.667-1.81c-1.31-1.424-1.175-2.635-.092-3.632 1.078-.992 2.245-.98 3.538.425l1.684 1.83zm-18.52-14.961l.851 1.94 10.02-9.5-.91-2.074-13.775.938.85 1.94 11.143-.939.058.133-8.237 7.562zM4.26 85.898l.162 1.954 12.947-1.073-.162-1.954L4.26 85.898zm7.572-28.472c-2.803-.252-4.911 1.459-5.585 4.121-.826 3.26 1.007 6.282 5.034 7.302 4.028 1.02 7.075-.754 7.904-4.025.7-2.767-.521-5.23-2.908-6.272l-.492 1.917c1.529.734 2.072 2.31 1.669 3.903-.547 2.159-2.614 3.37-5.695 2.59-3.056-.775-4.323-2.823-3.774-4.994.407-1.605 1.652-2.723 3.36-2.624l.487-1.918zm13.262-8.172l4.497-6.882-1.413-.923-3.424 5.241-3.33-2.175 3.15-4.822-1.407-.92-3.15 4.822-3.314-2.165 3.383-5.177-1.412-.923-4.455 6.818 10.875 7.106zm12.655-28.038l1.492-1.16c-1.323-1.607-3.702-1.669-5.785-.048-2.057 1.601-2.718 4.005-1.343 5.772 1.11 1.426 2.782 1.468 4.776.631l1.468-.612c1.323-.563 2.45-.861 3.158.05.78 1.001.338 2.406-.979 3.43-1.191.928-2.595 1.169-3.554.123l-1.552 1.207c1.546 1.78 3.874 1.808 6.172.02 2.408-1.875 2.809-4.22 1.457-5.957-1.438-1.847-3.642-1.281-5.193-.589l-1.203.52c-.961.417-2.32.872-3.078-.113-.678-.871-.385-2.136.877-3.118 1.176-.916 2.44-1.016 3.287-.155zm20.953-3.341a3.23 3.23 0 002-4.092c-.57-1.66-2.426-2.555-4.086-1.985-1.675.575-2.575 2.416-2.005 4.076a3.22 3.22 0 004.091 2z" fill="#000"/></svg>