<svg width="67" height="11" fill="none" xmlns="http://www.w3.org/2000/svg"><mask id="path-1-outside-1_1030_2610" maskUnits="userSpaceOnUse" x="-.12" y="0" width="67" height="11" fill="#000"><path fill="#fff" d="M-.12 0h67v11h-67z"/><path d="M.88 10.161v-8.74h.85v8.74H.88zm3.37 0v-8.74h.84l4.46 6.29.72 1.18c-.05-.48-.08-.87-.08-1.18v-6.29h.86v8.74h-.83l-4.47-6.29-.72-1.18c.043.392.067.786.07 1.18v6.29h-.85zm11.56 0l-3.24-8.74h.92l2.43 6.64.34 1.12c.12-.45.23-.82.34-1.12l2.42-6.64H20l-3.23 8.74h-.96zm5.64 0v-8.74h4.92v.77h-4.06v3.18h3.32v.78h-3.32v3.24h4.29v.77h-5.15zm6.29-1l.51-.66a3.41 3.41 0 001 .7 3.2 3.2 0 001.23.26 1.9 1.9 0 001.27-.41 1.33 1.33 0 00.5-1.08 1.28 1.28 0 00-.25-.79 1.89 1.89 0 00-.62-.57 6.117 6.117 0 00-.85-.43l-.93-.44a6.77 6.77 0 01-.84-.48 2.49 2.49 0 01-.63-.7 2.11 2.11 0 01-.23-1 2.06 2.06 0 01.78-1.69 3 3 0 012-.65 3.25 3.25 0 012.31.85l-.42.72a2.56 2.56 0 00-.89-.54 2.72 2.72 0 00-1-.21 2.1 2.1 0 00-1.31.4 1.26 1.26 0 00-.52 1.07 1.29 1.29 0 00.24.76 2 2 0 00.62.53c.26.14.54.28.84.41.3.13.63.28.94.42.294.142.575.31.84.5a2.15 2.15 0 01.87 1.73 2.29 2.29 0 01-.72 1.73 2.73 2.73 0 01-1.95.67 3.731 3.731 0 01-2.79-1.07v-.03zm9.41 1v-8H34v-.77h7.14v.77H38v8h-.85zm5.46 0v-8.74h3a2.44 2.44 0 011.7.6 2 2 0 01.66 1.6 2 2 0 01-1.11 1.9 1.79 1.79 0 011.07.78c.271.409.41.89.4 1.38a2.25 2.25 0 01-.75 1.79 2.7 2.7 0 01-1.87.66l-3.1.03zm.86-5h2.13a1.44 1.44 0 001.07-.42 1.53 1.53 0 00.41-1.11 1.46 1.46 0 00-.41-1.08 1.48 1.48 0 00-1.1-.41h-2.1v3.02zm0 4.18h2.24a1.59 1.59 0 001.71-1.7 1.63 1.63 0 00-1.72-1.68h-2.23v3.38zm6.22-3.67a4.46 4.46 0 118.91 0 4.559 4.559 0 01-1.27 3.27 4.5 4.5 0 01-6.37 0 4.52 4.52 0 01-1.27-3.22v-.05zm.9 0a3.84 3.84 0 001 2.7 3.36 3.36 0 002.55 1.08 3.33 3.33 0 002.54-1.08 3.78 3.78 0 001-2.7 3.591 3.591 0 00-1-2.6 3.4 3.4 0 00-2.54-1 3.44 3.44 0 00-2.55 1 3.62 3.62 0 00-1 2.65v-.05zm8.69 4.44l2.78-4.56-2.55-4.18h1l1.53 2.59.57 1a9.21 9.21 0 01.53-1l1.54-2.59h1l-2.56 4.18 2.8 4.56h-1l-1.83-3-.55-1c-.17.35-.35.68-.53 1l-1.79 3h-.94z"/></mask><path d="M.88 10.161v-8.74h.85v8.74H.88zm3.37 0v-8.74h.84l4.46 6.29.72 1.18c-.05-.48-.08-.87-.08-1.18v-6.29h.86v8.74h-.83l-4.47-6.29-.72-1.18c.043.392.067.786.07 1.18v6.29h-.85zm11.56 0l-3.24-8.74h.92l2.43 6.64.34 1.12c.12-.45.23-.82.34-1.12l2.42-6.64H20l-3.23 8.74h-.96zm5.64 0v-8.74h4.92v.77h-4.06v3.18h3.32v.78h-3.32v3.24h4.29v.77h-5.15zm6.29-1l.51-.66a3.41 3.41 0 001 .7 3.2 3.2 0 001.23.26 1.9 1.9 0 001.27-.41 1.33 1.33 0 00.5-1.08 1.28 1.28 0 00-.25-.79 1.89 1.89 0 00-.62-.57 6.117 6.117 0 00-.85-.43l-.93-.44a6.77 6.77 0 01-.84-.48 2.49 2.49 0 01-.63-.7 2.11 2.11 0 01-.23-1 2.06 2.06 0 01.78-1.69 3 3 0 012-.65 3.25 3.25 0 012.31.85l-.42.72a2.56 2.56 0 00-.89-.54 2.72 2.72 0 00-1-.21 2.1 2.1 0 00-1.31.4 1.26 1.26 0 00-.52 1.07 1.29 1.29 0 00.24.76 2 2 0 00.62.53c.26.14.54.28.84.41.3.13.63.28.94.42.294.142.575.31.84.5a2.15 2.15 0 01.87 1.73 2.29 2.29 0 01-.72 1.73 2.73 2.73 0 01-1.95.67 3.731 3.731 0 01-2.79-1.07v-.03zm9.41 1v-8H34v-.77h7.14v.77H38v8h-.85zm5.46 0v-8.74h3a2.44 2.44 0 011.7.6 2 2 0 01.66 1.6 2 2 0 01-1.11 1.9 1.79 1.79 0 011.07.78c.271.409.41.89.4 1.38a2.25 2.25 0 01-.75 1.79 2.7 2.7 0 01-1.87.66l-3.1.03zm.86-5h2.13a1.44 1.44 0 001.07-.42 1.53 1.53 0 00.41-1.11 1.46 1.46 0 00-.41-1.08 1.48 1.48 0 00-1.1-.41h-2.1v3.02zm0 4.18h2.24a1.59 1.59 0 001.71-1.7 1.63 1.63 0 00-1.72-1.68h-2.23v3.38zm6.22-3.67a4.46 4.46 0 118.91 0 4.559 4.559 0 01-1.27 3.27 4.5 4.5 0 01-6.37 0 4.52 4.52 0 01-1.27-3.22v-.05zm.9 0a3.84 3.84 0 001 2.7 3.36 3.36 0 002.55 1.08 3.33 3.33 0 002.54-1.08 3.78 3.78 0 001-2.7 3.591 3.591 0 00-1-2.6 3.4 3.4 0 00-2.54-1 3.44 3.44 0 00-2.55 1 3.62 3.62 0 00-1 2.65v-.05zm8.69 4.44l2.78-4.56-2.55-4.18h1l1.53 2.59.57 1a9.21 9.21 0 01.53-1l1.54-2.59h1l-2.56 4.18 2.8 4.56h-1l-1.83-3-.55-1c-.17.35-.35.68-.53 1l-1.79 3h-.94z" fill="#000"/><path d="M.88 10.161v-8.74h.85v8.74H.88zm3.37 0v-8.74h.84l4.46 6.29.72 1.18c-.05-.48-.08-.87-.08-1.18v-6.29h.86v8.74h-.83l-4.47-6.29-.72-1.18c.043.392.067.786.07 1.18v6.29h-.85zm11.56 0l-3.24-8.74h.92l2.43 6.64.34 1.12c.12-.45.23-.82.34-1.12l2.42-6.64H20l-3.23 8.74h-.96zm5.64 0v-8.74h4.92v.77h-4.06v3.18h3.32v.78h-3.32v3.24h4.29v.77h-5.15zm6.29-1l.51-.66a3.41 3.41 0 001 .7 3.2 3.2 0 001.23.26 1.9 1.9 0 001.27-.41 1.33 1.33 0 00.5-1.08 1.28 1.28 0 00-.25-.79 1.89 1.89 0 00-.62-.57 6.117 6.117 0 00-.85-.43l-.93-.44a6.77 6.77 0 01-.84-.48 2.49 2.49 0 01-.63-.7 2.11 2.11 0 01-.23-1 2.06 2.06 0 01.78-1.69 3 3 0 012-.65 3.25 3.25 0 012.31.85l-.42.72a2.56 2.56 0 00-.89-.54 2.72 2.72 0 00-1-.21 2.1 2.1 0 00-1.31.4 1.26 1.26 0 00-.52 1.07 1.29 1.29 0 00.24.76 2 2 0 00.62.53c.26.14.54.28.84.41.3.13.63.28.94.42.294.142.575.31.84.5a2.15 2.15 0 01.87 1.73 2.29 2.29 0 01-.72 1.73 2.73 2.73 0 01-1.95.67 3.731 3.731 0 01-2.79-1.07v-.03zm9.41 1v-8H34v-.77h7.14v.77H38v8h-.85zm5.46 0v-8.74h3a2.44 2.44 0 011.7.6 2 2 0 01.66 1.6 2 2 0 01-1.11 1.9v0a1.79 1.79 0 011.07.78c.271.409.41.89.4 1.38a2.25 2.25 0 01-.75 1.79 2.7 2.7 0 01-1.87.66l-3.1.03zm.86-5h2.13a1.44 1.44 0 001.07-.42 1.53 1.53 0 00.41-1.11 1.46 1.46 0 00-.41-1.08 1.48 1.48 0 00-1.1-.41h-2.1v3.02zm0 4.18h2.24a1.59 1.59 0 001.71-1.7 1.63 1.63 0 00-1.72-1.68h-2.23v3.38zm6.22-3.67a4.46 4.46 0 118.91 0 4.559 4.559 0 01-1.27 3.27 4.5 4.5 0 01-6.37 0 4.52 4.52 0 01-1.27-3.22v-.05zm.9 0a3.84 3.84 0 001 2.7 3.36 3.36 0 002.55 1.08 3.33 3.33 0 002.54-1.08 3.78 3.78 0 001-2.7 3.591 3.591 0 00-1-2.6 3.4 3.4 0 00-2.54-1 3.44 3.44 0 00-2.55 1 3.62 3.62 0 00-1 2.65v-.05zm8.69 4.44l2.78-4.56-2.55-4.18h1l1.53 2.59.57 1a9.21 9.21 0 01.53-1l1.54-2.59h1l-2.56 4.18 2.8 4.56h-1l-1.83-3-.55-1c-.17.35-.35.68-.53 1l-1.79 3h-.94z" stroke="#000" stroke-width=".3" mask="url(#path-1-outside-1_1030_2610)"/></svg>