<svg width="87" height="41" fill="none" xmlns="http://www.w3.org/2000/svg"><g clip-path="url(#clip0_824_2646)" fill="#000"><path d="M.19 13.842h2.752V8.06h2.396a16.678 16.678 0 013.1 5.783h3.034A19.663 19.663 0 007.62 6.73 16.209 16.209 0 0010.918.26H7.976a13.231 13.231 0 01-2.668 5.347H2.942V.26H.19v13.582zm19.712-2.255c-2.449 0-4.125-1.65-4.125-4.53 0-2.88 1.608-4.507 4.125-4.507s4.124 1.658 4.124 4.538c0 2.88-1.607 4.5-4.124 4.5zm0 2.498c4.26 0 6.983-2.735 6.983-7.028 0-4.293-2.67-7.036-6.983-7.036-4.314 0-6.975 2.743-6.975 7.036 0 4.293 2.676 7.028 6.975 7.028zm9.712-.243h2.752v-7.38c0-2.39 1.373-3.75 3.791-3.75h2.1V.26h-2.206c-4.094 0-6.437 2.292-6.437 6.41v7.172zm16.892-2.192c-2.343 0-3.79-1.528-3.79-4.584 0-3.055 1.455-4.583 3.79-4.583s3.79 1.528 3.79 4.583c0 3.056-1.44 4.584-3.79 4.584zm-6.573 6.54h2.752v-5.51a5.472 5.472 0 004.04 1.436c4.011 0 6.468-2.467 6.468-7.058 0-4.592-2.51-7.059-6.657-7.059s-6.603 2.521-6.603 7.005V18.19zm21.987-4.073c6.148 0 6.171-4.667 6.171-6.325V.26h-2.744v7.746c0 1.169-.167 3.644-3.427 3.644-3.26 0-3.45-2.475-3.45-3.644V.26h-2.722v7.524c0 1.643.06 6.333 6.172 6.333zm14.01 0c3.564 0 5.202-1.657 5.202-4.018 0-5.454-7.407-3.445-7.407-6.295 0-.848.644-1.306 1.887-1.306a3.924 3.924 0 013.124 1.36l2.13-1.742A6.452 6.452 0 0078.58.494 6.409 6.409 0 0075.825 0c-3.23 0-4.959 1.711-4.959 4.072 0 5.05 7.415 3.124 7.415 6.165 0 .924-.675 1.382-1.971 1.382a4.237 4.237 0 01-2.057-.467 4.27 4.27 0 01-1.582-1.404l-2.123 1.734a6.2 6.2 0 002.354 2.017 6.142 6.142 0 003.029.618zM6.573 34.453c-2.342 0-3.79-1.528-3.79-4.584 0-3.055 1.455-4.583 3.79-4.583s3.791 1.527 3.791 4.583-1.44 4.584-3.79 4.584zM0 40.992h2.752v-5.508a5.443 5.443 0 004.041 1.444c4.01 0 6.467-2.468 6.467-7.059s-2.51-7.058-6.656-7.058C2.456 22.81 0 25.338 0 29.816v11.176zm16.004-4.34h2.753v-7.364c0-2.39 1.372-3.743 3.79-3.743h2.108v-2.498H22.42c-4.095 0-6.445 2.292-6.445 6.41l.03 7.195zm16.544-2.199c-2.275 0-3.685-1.436-3.685-4.584 0-3.147 1.425-4.583 3.685-4.583 2.48 0 3.935 1.528 3.935 4.583 0 3.056-1.479 4.584-3.935 4.584zm6.687 2.2V23.078h-2.1l-.296 1.765a5.712 5.712 0 00-2.142-1.597 5.67 5.67 0 00-2.627-.443c-3.616 0-6.065 2.444-6.065 7.059 0 4.614 2.48 7.058 6.065 7.058 2.123 0 3.746-.618 4.792-1.978l.273 1.711h2.1zm7.597.002h3.503A35.88 35.88 0 0055.21 23.08h-2.775a34.608 34.608 0 01-3.791 11.268h-.053a35.834 35.834 0 01-4.23-11.268h-2.935a37.596 37.596 0 005.406 13.575zm16.385-2.202c-2.275 0-3.693-1.436-3.693-4.584 0-3.147 1.426-4.583 3.693-4.583 2.479 0 3.934 1.528 3.934 4.583 0 3.056-1.486 4.584-3.934 4.584zm6.68 2.2V23.078h-2.101l-.296 1.765a5.713 5.713 0 00-2.141-1.597 5.67 5.67 0 00-2.628-.443c-3.608 0-6.065 2.444-6.065 7.059 0 4.614 2.48 7.058 6.065 7.058 2.13 0 3.746-.618 4.8-1.978l.265 1.711h2.1zM85.241 3.818a1.75 1.75 0 01-.978-.3A1.785 1.785 0 0184 .79a1.755 1.755 0 011.92-.378c.321.135.595.363.788.656a1.782 1.782 0 01-.225 2.235c-.33.33-.776.516-1.242.516zm0-3.247c-.29 0-.575.087-.817.25a1.492 1.492 0 00-.223 2.28 1.468 1.468 0 001.603.322 1.49 1.49 0 00.477-2.417 1.465 1.465 0 00-1.04-.435z"/><path d="M85.249 2.124h-.356v.672h-.273V1.207h.485c.462 0 .705.107.705.458a.4.4 0 01-.296.405l.364.764h-.31l-.32-.71zm-.356-.695v.473h.28c.235 0 .372-.046.372-.237 0-.19-.167-.236-.387-.236h-.265z"/></g><defs><clipPath id="clip0_824_2646"><path fill="#fff" d="M0 0h87v41H0z"/></clipPath></defs></svg>