<svg xmlns="http://www.w3.org/2000/svg"><symbol viewBox="0 0 10 6" id="arrow"><path d="M1 1l4 4 4-4" fill="transparent" xmlns="http://www.w3.org/2000/svg"/></symbol><symbol viewBox="0 0 16 40" id="logoAbreviate"><path d="M1.969 14.543v.286h3.348V9.088H7.31a16.193 16.193 0 012.986 5.539l.063.202h3.656l-.112-.37a19.718 19.718 0 00-3.782-6.98 16.29 16.29 0 003.228-6.352l.09-.357H9.88l-.053.218A12.774 12.774 0 017.28 6.08H5.317V.77H1.969v13.773zM1.023 38.64v.287h3.349v-5.151a5.83 5.83 0 003.795 1.116c2.077-.002 3.786-.634 4.976-1.884 1.189-1.25 1.822-3.082 1.822-5.412 0-2.331-.647-4.164-1.869-5.414-1.222-1.251-2.982-1.881-5.128-1.881-2.149 0-3.895.646-5.103 1.898-1.207 1.251-1.842 3.07-1.842 5.344V38.64zm6.914-6.78c-1.117 0-1.986-.356-2.58-1.039-.6-.689-.955-1.75-.955-3.225 0-1.474.357-2.536.958-3.225.595-.683 1.464-1.04 2.577-1.04s1.982.357 2.577 1.04c.601.69.958 1.75.958 3.225 0 1.476-.353 2.537-.952 3.225-.593.683-1.462 1.04-2.583 1.04z" xmlns="http://www.w3.org/2000/svg" stroke-width=".574"/></symbol><symbol viewBox="0 0 7 11" id="arrowRight"><path d="M.948.766l4.74 4.739m-4.79 4.663l5.134-5.174" xmlns="http://www.w3.org/2000/svg" stroke="#000" stroke-width="1.185"/></symbol><symbol viewBox="0 0 24 24" id="telegramIcon"><path d="M2.823 10.75l18.135-5.76a.36.36 0 01.457.438l-3.173 11.608a.36.36 0 01-.475.242l-6.407-2.423a.36.36 0 01-.115-.604l5.026-4.555c.31-.28-.024-.773-.4-.59l-8.413 4.092a.36.36 0 01-.294.01l-4.368-1.78a.36.36 0 01.027-.677zm10.081.982c.158-.136-.017-.383-.2-.28l-4.009 2.19a.887.887 0 00-.408 1.033l1.238 4.17c.063.21.328.279.485.124l2.472-2.34a.2.2 0 00-.061-.326l-2.566-1.278a.226.226 0 01-.054-.367l3.103-2.925z" xmlns="http://www.w3.org/2000/svg"/></symbol><symbol viewBox="0 0 24 24" id="linkedInIcon"><path d="M17.005 17.008H14.9v-3.3c0-.787-.016-1.8-1.099-1.8-1.097 0-1.265.857-1.265 1.742v3.358H10.43v-6.786h2.023v.924h.027c.283-.532.97-1.096 1.998-1.096 2.133 0 2.528 1.405 2.528 3.233v3.725zM8.052 9.294A1.221 1.221 0 017.035 7.39a1.223 1.223 0 111.016 1.904zm1.055 7.714H6.995v-6.786h2.113v6.786zm8.953-12.12H5.939c-.582 0-1.05.459-1.05 1.025v12.173c0 .567.469 1.025 1.049 1.025h12.119c.58 0 1.054-.458 1.054-1.025V5.913c0-.566-.474-1.024-1.054-1.024h.003z" xmlns="http://www.w3.org/2000/svg"/></symbol><symbol viewBox="0 0 24 24" id="twitterIcon"><path d="M20.736 6.577c-.655.29-1.35.48-2.061.565a3.6 3.6 0 001.579-1.986 7.173 7.173 0 01-2.28.87A3.589 3.589 0 0011.86 9.3a10.19 10.19 0 01-7.397-3.75 3.588 3.588 0 001.11 4.792 3.576 3.576 0 01-1.625-.45v.045a3.591 3.591 0 002.88 3.52 3.613 3.613 0 01-1.622.061 3.591 3.591 0 003.352 2.493 7.202 7.202 0 01-5.312 1.487 10.152 10.152 0 005.5 1.613c6.602 0 10.212-5.469 10.212-10.212 0-.154-.004-.31-.011-.463a7.291 7.291 0 001.79-1.858v-.001z" xmlns="http://www.w3.org/2000/svg"/></symbol><symbol viewBox="0 0 12 11" id="smallArrow"><path d="M0 5.332h10.664M5.948.766l4.74 4.739m-4.79 4.663l5.135-5.174" xmlns="http://www.w3.org/2000/svg" stroke-width="1.185"/></symbol><symbol viewBox="0 0 16 16" id="sliderArrow"><path d="M10.532 2.129l-6.5 6.55m6.438 5.351l-6-6" xmlns="http://www.w3.org/2000/svg" stroke-width="1.5"/></symbol><symbol viewBox="0 0 16 16" id="selectArrow"><path d="M2.128 5.468l6.55 6.5M14.03 5.53l-6 6" xmlns="http://www.w3.org/2000/svg" stroke="#000" stroke-width="1.5"/></symbol><symbol viewBox="0 0 20 16" id="quotesIcon"><path d="M0 15.456v-4.193c0-1.237.232-2.54.698-3.908a17.03 17.03 0 011.943-3.93A13.744 13.744 0 015.567.214L8.8 2.529a25.33 25.33 0 00-2.271 4.062c-.626 1.412-.939 2.947-.939 4.607v4.258H0zm11.135 0v-4.193c0-1.237.233-2.54.699-3.908a17.035 17.035 0 011.943-3.93 13.745 13.745 0 012.926-3.21l3.232 2.314a25.332 25.332 0 00-2.271 4.062c-.626 1.412-.939 2.947-.939 4.607v4.258h-5.59z" xmlns="http://www.w3.org/2000/svg"/></symbol><symbol viewBox="0 0 37 37" id="sliderLargeArrow"><path d="M37 19.899V17.1H5.393L17.576 5.38 15.53 3.5 0 18.5l15.529 15 1.997-1.881-12.133-11.72H37z" xmlns="http://www.w3.org/2000/svg"/></symbol><symbol viewBox="0 0 24 24" id="linkedInIcon"><path fill-rule="evenodd" clip-rule="evenodd" d="M1 2.838A1.838 1.838 0 012.838 1H21.16A1.836 1.836 0 0123 2.838V21.16A1.838 1.838 0 0121.161 23H2.838A1.839 1.839 0 011 21.161V2.838zm8.708 6.55h2.979v1.496c.43-.86 1.53-1.634 3.183-1.634 3.169 0 3.92 1.713 3.92 4.856v5.822h-3.207v-5.106c0-1.79-.43-2.8-1.522-2.8-1.515 0-2.145 1.089-2.145 2.8v5.106H9.708V9.388zm-5.5 10.403h3.208V9.25H4.208v10.541zM7.875 5.812a2.063 2.063 0 11-4.125.09 2.063 2.063 0 014.125-.09z" xmlns="http://www.w3.org/2000/svg"/></symbol></svg>