<svg width="32" height="19" fill="none" xmlns="http://www.w3.org/2000/svg"><path d="M6.241 11.559h-2.98V2.615H0V0h9.493v2.615H6.24v8.944zM3.95 10.87h1.595V1.926h3.251V.69H.69v1.229h3.269l-.01 8.952zm16.02.689h-3.207l-.715-2.232h-3.495l-.741 2.232H8.7L12.832 0h3.06l4.079 11.559zm-2.693-.689h1.726L15.395.69H13.31L9.685 10.86h1.639l.74-2.231h4.499l.714 2.24zM16.18 7.453h-3.73l1.89-5.736 1.84 5.736zm-2.78-.697h1.83l-.907-2.816-.924 2.816z" fill="#000"/><path d="M30.832 11.559H27.25l-1.865-3.356-1.979 3.356h-3.46l3.713-5.884L20.118 0h3.54l1.735 3.173L27.18 0h3.46l-3.547 5.588 3.74 5.97zm-3.182-.689h1.927l-3.313-5.282 3.112-4.89h-1.795l-2.206 3.905L23.24.697h-1.883l3.112 4.986-3.27 5.196h1.814l2.388-4.054 2.25 4.045zM9.145.35v1.917H5.893v8.944H3.61V2.267H.34V.35h8.805zm3.923 0h2.572l3.844 10.87h-2.458l-.724-2.24h-4l-.742 2.231H9.19L13.067.35zm-.148 6.755h2.78l-1.368-4.28-1.412 4.28z" fill="#000"/><path d="M23.206 11.211h-2.641l3.495-5.535L20.74.35h2.71l1.935 3.539 1.996-3.54h2.624l-3.33 5.24 3.53 5.622h-2.754l-2.066-3.705-2.179 3.705zM5.179 14.698a.658.658 0 00-.314-.061h-.793l-.175.845h.759c.157 0 .27-.017.357-.052.148-.061.235-.174.28-.357.034-.184 0-.306-.114-.375z" fill="#000"/><path d="M1.456 12.605L.245 18.768h30.544l1.212-6.163H1.456zm4.612 2.389a1.368 1.368 0 01-.227.488.89.89 0 01-.418.314.455.455 0 01.226.253c.044.122.044.296-.008.54l-.044.227a2.423 2.423 0 00-.044.305c0 .078.027.13.079.166l.017.008-.026.131h-.837V17.4c-.008-.079-.008-.14-.008-.183 0-.096.008-.192.034-.297l.061-.313c.044-.2.035-.34-.017-.401-.052-.061-.174-.096-.384-.096h-.706l-.279 1.316h-.74l.723-3.417h1.674c.235.009.418.035.531.087a.72.72 0 01.288.244.68.68 0 01.113.296 1 1 0 01-.008.358zm3.626-.34H7.916l-.14.654h1.639l-.14.636h-1.63l-.174.81h1.866l-.14.663H6.591L7.314 14h2.528l-.148.654zm3.495.383l-.008.027h-.732l.008-.035c.026-.192-.026-.323-.157-.401a.772.772 0 00-.375-.079.883.883 0 00-.444.105.414.414 0 00-.21.288c-.025.113.01.183.097.235.06.044.191.078.4.14l.55.139c.244.06.427.148.532.253.174.165.226.4.165.715a1.32 1.32 0 01-.523.784c-.279.21-.645.314-1.08.314-.445 0-.777-.105-.995-.305-.209-.21-.278-.488-.209-.854l.009-.027h.723v.027a.688.688 0 00.044.33c.079.131.253.192.514.192.166 0 .297-.017.401-.052.2-.07.314-.192.358-.366a.202.202 0 00-.079-.226c-.078-.062-.218-.114-.418-.149l-.34-.078c-.34-.079-.567-.166-.68-.262-.2-.165-.261-.418-.192-.758a1.24 1.24 0 01.497-.767c.262-.2.619-.305 1.046-.305.357 0 .654.096.863.287.227.184.296.462.236.829zm1.238 2.38h-.758L14.392 14h.759l-.724 3.417zm4.341-1.787c-.096.454-.27.837-.514 1.15-.331.42-.767.637-1.281.637H15.49L16.214 14h1.473c.21.009.384.026.515.079a.848.848 0 01.497.435c.087.175.13.358.13.55a3.654 3.654 0 01-.06.566zm3.688-.976h-1.779l-.14.654h1.631l-.14.636h-1.63l-.174.81h1.866l-.14.663h-2.606L20.067 14h2.528l-.14.654zm3.225 2.763h-.75l-.009-.017-.828-2.293-.488 2.31h-.715L23.616 14h.776l.81 2.267L25.69 14h.714l-.723 3.417zm4.15-2.763h-1.003l-.584 2.763h-.767l.584-2.763h-1.012l.14-.654h2.78l-.139.654z" fill="#000"/><path d="M17.434 14.645h-.618l-.454 2.135h.61c.314 0 .576-.165.776-.48.114-.174.183-.383.236-.636.07-.33.078-.592.008-.775-.06-.157-.252-.244-.558-.244z" fill="#000"/></svg>