<svg width="82" height="17" fill="none" xmlns="http://www.w3.org/2000/svg"><path d="M35.913 9.375v3.19H34.2v-3.19L30.596 3.41h1.829l2.69 4.466 2.712-4.466h1.68l-3.594 5.965zm4.997 2.871a3.296 3.296 0 01-1.33-1.287 3.818 3.818 0 010-3.7 3.339 3.339 0 011.33-1.276 4.04 4.04 0 011.914-.457c.67-.008 1.33.149 1.925.457a3.435 3.435 0 011.34 1.276 3.892 3.892 0 010 3.7 3.405 3.405 0 01-1.34 1.287 3.955 3.955 0 01-1.925.457 3.923 3.923 0 01-1.914-.457zm3.413-1.553a2.435 2.435 0 000-3.19 1.999 1.999 0 00-1.499-.606 1.967 1.967 0 00-1.489.606 2.435 2.435 0 000 3.19 1.967 1.967 0 001.49.607 1.998 1.998 0 001.498-.607zm10.59-5.082v6.997h-1.552v-.893c-.267.32-.606.571-.989.733a3.19 3.19 0 01-1.276.256 2.754 2.754 0 01-3.01-3.095V5.611h1.638v3.775c-.04.505.111 1.007.426 1.404a1.541 1.541 0 001.212.468 1.83 1.83 0 001.393-.543 2.126 2.126 0 00.52-1.563v-3.54h1.638zm8.317 6.996l-1.872-2.69h-2.424v2.669h-1.712V3.409h3.785a4.976 4.976 0 012.127.394c.557.23 1.031.623 1.36 1.127.322.524.484 1.13.469 1.744a3.19 3.19 0 01-.5 1.786 3.02 3.02 0 01-1.446 1.117l2.127 3.009-1.915.021zm-.617-7.262a2.584 2.584 0 00-1.69-.479h-1.99v3.669h1.99c.601.043 1.2-.127 1.69-.479a1.648 1.648 0 00.585-1.36 1.618 1.618 0 00-.585-1.351zM73.214 9.63h-5.498c.083.493.354.935.755 1.233a2.5 2.5 0 001.52.447 2.584 2.584 0 001.904-.755l.872 1.063c-.319.38-.729.672-1.19.851a4.348 4.348 0 01-1.628.287 4.254 4.254 0 01-2.03-.457 3.306 3.306 0 01-1.362-1.287 3.582 3.582 0 01-.478-1.85 3.668 3.668 0 01.468-1.84c.3-.54.746-.985 1.286-1.286a3.902 3.902 0 011.872-.457 3.623 3.623 0 011.829.457c.53.294.965.733 1.254 1.265.31.586.468 1.24.458 1.904 0 .053-.011.223-.032.425zm-4.85-2.329a1.957 1.957 0 00-.658 1.244h3.977a1.946 1.946 0 00-.65-1.233 1.903 1.903 0 00-1.328-.468 2.01 2.01 0 00-1.34.457zm13.462-1.69v5.933c0 2.467-1.262 3.7-3.785 3.7a7.049 7.049 0 01-1.914-.255 4.062 4.062 0 01-1.489-.733l.734-1.234c.345.274.738.48 1.159.607.46.151.94.23 1.425.233a2.35 2.35 0 001.69-.531 2.126 2.126 0 00.532-1.595v-.372c-.29.316-.656.554-1.063.69a3.56 3.56 0 01-1.33.245 3.86 3.86 0 01-1.796-.425 3.19 3.19 0 01-1.276-1.202 3.402 3.402 0 01-.468-1.775 3.36 3.36 0 01.468-1.765 3.105 3.105 0 011.276-1.18 3.733 3.733 0 011.797-.426c.476-.007.95.08 1.392.255a2.54 2.54 0 011.064.755v-.925h1.584zm-2.211 4.742a1.924 1.924 0 00.595-1.456 1.849 1.849 0 00-.595-1.425 2.414 2.414 0 00-3.073 0 1.85 1.85 0 00-.596 1.425 1.925 1.925 0 00.596 1.456 2.413 2.413 0 003.073 0zM25.31 9.842l-6.38 6.38a2.02 2.02 0 01-.669.447 1.57 1.57 0 01-.383.106.617.617 0 01-.202 0 1.962 1.962 0 01-.5 0 2.126 2.126 0 01-1.127-.574l-.117-.127-2.647-2.638 3.477-3.477a2.19 2.19 0 000-3.126l-3.477-3.477L15.932.72l.117-.127a2.052 2.052 0 011.16-.564 2.02 2.02 0 01.67 0 2.294 2.294 0 011.052.553l6.38 6.38a1.998 1.998 0 010 2.881z" fill="#1D1D1B"/><path d="M16.783 10.012l-6.115 6.114a2.19 2.19 0 01-3.126 0l-6.114-6.114a2.212 2.212 0 010-3.126L7.542.772a2.212 2.212 0 013.127 0l6.114 6.114a2.19 2.19 0 010 3.126z" fill="#303031"/><path d="M16.783 10.013l-3.477 3.477-3.477-3.477a2.212 2.212 0 010-3.127l3.477-3.466 3.477 3.466a2.192 2.192 0 010 3.127z" fill="#303031"/></svg>