<svg width="10" height="10" viewBox="0 0 10 10" fill="none" xmlns="http://www.w3.org/2000/svg">
<g clip-path="url(#clip0_111_9)">
<path d="M-0.333333 -1H10.3333C10.5101 -1 10.6797 -0.92976 10.8047 -0.80474C10.9298 -0.67971 11 -0.51014 11 -0.33333V10.3333C11 10.5101 10.9298 10.6797 10.8047 10.8047C10.6797 10.9298 10.5101 11 10.3333 11H-0.333333C-0.510144 11 -0.679714 10.9298 -0.804738 10.8047C-0.929762 10.6797 -1 10.5101 -1 10.3333V-0.33333C-1 -0.51014 -0.929762 -0.67971 -0.804738 -0.80474C-0.679714 -0.92976 -0.510144 -1 -0.333333 -1ZM-0.804738 -0.80474L-0.833984 10.8335L10.8047 10.8047V-0.80474H-0.804738ZM4.33533 7.66667L1.50667 4.838L2.44933 3.89533L4.33533 5.78133L8.106 2.01L9.04933 2.95267L4.33533 7.66667Z" fill="black"/>
</g>
<defs>
<clipPath id="clip0_111_9">
<rect width="10" height="10" fill="white"/>
</clipPath>
</defs>
</svg>