<svg width="160" height="160" viewBox="0 0 160 160" fill="none" xmlns="http://www.w3.org/2000/svg">
<path d="M76.1562 17.1161H78.1163V12.5489H80.7805C83.7936 12.5489 85.2843 10.7284 85.2843 8.33061C85.2843 5.93919 83.8063 4.125 80.7869 4.125H76.1562V17.1161ZM78.1163 10.887V5.80598H80.5775C82.5186 5.80598 83.3115 6.85897 83.3115 8.33061C83.3115 9.80226 82.5186 10.887 80.6029 10.887H78.1163Z" fill="black"/>
<path d="M102.271 20.8172L104.061 21.6144L106.061 17.1234L108.495 18.207C108.535 18.225 108.57 18.2405 108.611 18.2586L109.022 23.8229L111.062 24.7311L110.57 18.7558C112.264 18.8645 113.528 17.9758 114.237 16.3822C115.21 14.1976 114.538 12.0582 111.785 10.8327L107.555 8.94922L102.271 20.8172ZM106.747 15.5819L108.662 11.2821L110.91 12.2832C112.677 13.0701 113.034 14.2354 112.435 15.5798C111.839 16.9185 110.763 17.3699 109.019 16.5933L106.747 15.5819Z" fill="black"/>
<path d="M137.718 29.9566L136.406 28.5L126.752 37.1927L128.064 38.6494L137.718 29.9566Z" fill="black"/>
<path d="M151.866 53.2064L151.211 51.1914L140.3 59.6521L141 61.8058L154.8 62.2375L154.145 60.2226L142.965 60.0535L142.92 59.9147L151.866 53.2064Z" fill="black"/>
<path d="M143.839 83.1917L147.134 84.7371L146.603 89.7839L143.06 90.6043L142.843 92.6735L156.251 89.382L156.488 87.1299L144.057 81.1225L143.839 83.1917ZM148.714 85.4773L154.028 87.962L154.017 88.0629L148.303 89.3886L148.714 85.4773Z" fill="black"/>
<path d="M147.687 113.203L145.664 116.708L135.874 111.056L134.897 112.748L144.687 118.4L142.66 121.91L144.121 122.754L149.148 114.047L147.687 113.203Z" fill="black"/>
<path d="M121.052 129.158L114.401 133.99L115.392 135.355L120.458 131.675L122.795 134.893L118.136 138.278L119.124 139.638L123.783 136.253L126.11 139.455L121.106 143.09L122.098 144.455L128.688 139.668L121.052 129.158Z" fill="black"/>
<path d="M94.4907 145.471C92.7739 145.836 91.6386 147.542 92.0102 149.291C92.3751 151.008 94.1097 152.12 95.8265 151.756C97.559 151.387 98.6753 149.668 98.3103 147.952C97.9387 146.203 96.2232 145.103 94.4907 145.471Z" fill="black"/>
<path d="M72.0205 143.294L70.0846 142.882L65.3873 151.832L65.288 151.811L64.6369 141.724L62.7072 141.314L56.4758 153.271L58.4985 153.701L63.061 144.379L63.1789 144.404L63.6608 154.798L65.6587 155.223L70.3254 145.929L70.4432 145.955L70.8272 156.321L72.8438 156.75L72.0205 143.294Z" fill="black"/>
<path d="M46.6516 134.033L40.0007 129.201L39.0089 130.566L44.0741 134.246L41.7363 137.464L37.0766 134.078L36.0885 135.438L40.7483 138.824L38.4217 142.026L33.4181 138.391L32.4263 139.756L39.0156 144.543L46.6516 134.033Z" fill="black"/>
<path d="M27.6166 115.367L24.0428 116.053L21.5055 111.658L23.8899 108.912L22.8496 107.11L13.9365 117.654L15.0687 119.615L28.6569 117.169L27.6166 115.367ZM22.3291 116.383L16.57 117.496L16.5192 117.408L20.3627 112.977L22.3291 116.383Z" fill="black"/>
<path d="M17.9512 90.7397L17.131 82.936L15.4529 83.1124L16.0682 88.9667L4.82636 90.1483L5.03125 92.0977L17.9512 90.7397Z" fill="black"/>
<path d="M7.9563 62.2792L9.2069 58.4303L19.9574 61.9233L20.5612 60.0652L9.81064 56.5722L11.0632 52.7172L9.45847 52.1958L6.35156 61.7578L7.9563 62.2792Z" fill="black"/>
<path d="M29.8965 42.0209L31.208 40.5642L26.9984 36.7739L31.332 31.9609L35.5416 35.7512L36.8574 34.2899L27.2032 25.5972L25.8874 27.0585L30.0828 30.8361L25.7492 35.6491L21.5537 31.8715L20.2422 33.3281L29.8965 42.0209Z" fill="black"/>
<path d="M53.2818 19.6571C54.8852 18.9433 55.6409 17.0381 54.9139 15.4052C54.2001 13.8018 52.272 13.0739 50.6686 13.7878C49.0505 14.5082 48.316 16.4216 49.0299 18.025C49.7569 19.6578 51.6637 20.3776 53.2818 19.6571Z" fill="black"/>
</svg>
