<svg width="160" height="160" viewBox="0 0 160 160" fill="none" xmlns="http://www.w3.org/2000/svg">
<path d="M75.8516 17.1161H83.6982V15.4288H77.8116V4.125H75.8516V17.1161Z" fill="black"/>
<path d="M100.271 20.4586L102.689 17.7386L107.377 19.6806L107.157 23.3109L109.079 24.1071L109.732 10.3158L107.639 9.4492L98.3489 19.6624L100.271 20.4586ZM103.847 16.4333L107.739 12.0444L107.832 12.0832L107.481 17.9384L103.847 16.4333Z" fill="black"/>
<path d="M120.963 32.2651L122.363 33.6645L131.176 28.7171L131.248 28.7889L126.301 37.6027L127.696 38.9976L139.434 32.3637L137.972 30.9015L129.068 36.2346L128.983 36.1494L134.24 27.1696L132.796 25.7253L123.82 30.9777L123.735 30.8925L129.059 21.989L127.602 20.5312L120.963 32.2651Z" fill="black"/>
<path d="M137.55 55.4065C138 56.4907 138.861 57.5416 139.952 58.0372L139.337 59.2392L140.158 61.22L141.491 58.6699C142.382 58.8981 143.65 58.9428 145.314 58.2534L144.659 56.671C143.856 57.0036 143.063 57.1122 142.337 57.0492L144.213 53.457L145.157 54.0274C146.296 54.7227 147.382 54.9733 148.524 54.5C149.925 53.9198 150.67 52.2862 149.905 50.4402C149.148 48.6117 147.472 47.8983 145.814 48.5852C144.741 49.0295 144.124 49.944 143.517 51.0811C142 50.103 140.729 49.5378 139.299 50.1301C137.371 50.9287 136.55 52.992 137.55 55.4065ZM140.704 56.572C139.931 56.1644 139.341 55.5366 139.036 54.7982C138.497 53.4972 139.03 52.2809 140.067 51.8512C140.436 51.6983 141.303 51.703 142.383 52.3543L142.749 52.5736L140.704 56.572ZM144.979 52.0069C145.421 51.1852 145.859 50.5025 146.469 50.25C147.166 49.9611 148.107 50.2442 148.457 51.0881C148.792 51.8968 148.377 52.6864 147.815 52.9195C147.1 53.2156 146.504 53.0026 145.806 52.5293L144.979 52.0069Z" fill="black"/>
<path d="M154.188 75.2148V79.2619H142.884V81.2156H154.188V85.269H155.875V75.2148H154.188Z" fill="black"/>
<path d="M139.538 101.064L142.258 103.482L140.316 108.17L136.685 107.95L135.889 109.872L149.68 110.525L150.547 108.432L140.334 99.1419L139.538 101.064ZM143.563 104.64L147.952 108.532L147.913 108.625L142.058 108.274L143.563 104.64Z" fill="black"/>
<path d="M135.783 132.085L137.388 130.479L129.884 128.797L128.22 121.275L126.605 122.89L127.942 128.64L127.87 128.712L122.12 127.375L120.505 128.99L127.978 130.703L129.709 138.158L131.315 136.552L129.92 130.761L129.992 130.69L135.783 132.085Z" fill="black"/>
<path d="M105.222 141.828C103.601 142.5 102.795 144.384 103.479 146.036C104.151 147.657 106.059 148.435 107.681 147.764C109.317 147.086 110.102 145.192 109.43 143.571C108.746 141.92 106.859 141.15 105.222 141.828Z" fill="black"/>
<path d="M87.7336 142.16L79.8982 142.581L79.9886 144.266L85.8667 143.95L86.4724 155.238L88.4297 155.133L87.7336 142.16Z" fill="black"/>
<path d="M63.1794 140.127L60.9112 142.973L56.1255 141.285L56.1504 137.648L54.1883 136.956L54.2759 150.762L56.4115 151.515L65.1415 140.819L63.1794 140.127ZM59.8242 144.338L56.1735 148.929L56.0778 148.895L56.1153 143.03L59.8242 144.338Z" fill="black"/>
<path d="M41.8751 129.451L40.4027 128.128L31.8666 133.541L31.7911 133.473L36.2592 124.407L34.7915 123.089L23.4255 130.342L24.964 131.724L33.5689 125.921L33.6586 126.002L28.8904 135.25L30.4101 136.615L39.091 130.889L39.1807 130.97L34.3412 140.146L35.875 141.523L41.8751 129.451Z" fill="black"/>
<path d="M24.078 107.233C23.5714 106.174 22.6554 105.171 21.5394 104.734L22.0885 103.501L21.1631 101.567L19.9686 104.185C19.0666 104.005 17.798 104.028 16.173 104.806L16.9122 106.351C17.6961 105.976 18.4818 105.825 19.2106 105.849L17.5294 109.536L16.5567 109.017C15.3817 108.384 14.2842 108.192 13.1684 108.726C11.8009 109.38 11.1448 111.051 12.0073 112.854C12.8615 114.639 14.5729 115.262 16.1923 114.487C17.2394 113.986 17.8062 113.04 18.3514 111.872C19.919 112.767 21.2184 113.263 22.6146 112.595C24.4971 111.694 25.206 109.59 24.078 107.233ZM20.8664 106.238C21.6602 106.603 22.2826 107.199 22.6276 107.92C23.2354 109.19 22.7684 110.433 21.7556 110.918C21.3951 111.09 20.529 111.132 19.4158 110.54L19.039 110.34L20.8664 106.238ZM16.8425 111.025C16.4448 111.87 16.0439 112.575 15.4488 112.86C14.7679 113.185 13.8129 112.953 13.4186 112.129C13.0408 111.34 13.4123 110.529 13.9617 110.266C14.6597 109.932 15.2666 110.113 15.9882 110.548L16.8425 111.025Z" fill="black"/>
<path d="M6.40365 88.3432L6.1868 84.302L17.4743 83.6963L17.3697 81.7454L6.08212 82.351L5.86493 78.3035L4.18003 78.3939L4.71875 88.4336L6.40365 88.3432Z" fill="black"/>
<path d="M19.6466 61.7458L16.8009 59.4775L18.4889 54.6918L22.1258 54.7168L22.8178 52.7547L9.01141 52.8423L8.25816 54.9779L18.9545 63.7079L19.6466 61.7458ZM15.4355 58.3906L10.8443 54.7399L10.8781 54.6441L16.7436 54.6817L15.4355 58.3906Z" fill="black"/>
<path d="M21.7297 30.569L20.2123 32.2585L27.7957 33.536L29.8604 40.9581L31.3863 39.2591L29.7435 33.5887L29.8113 33.5132L35.6249 34.5398L37.1508 32.8409L29.5971 31.5303L27.4688 24.1791L25.9514 25.8686L27.6546 31.5761L27.5868 31.6517L21.7297 30.569Z" fill="black"/>
<path d="M51.7329 19.1984C53.3161 18.4408 54.0193 16.5156 53.2478 14.9033C52.4902 13.3201 50.5429 12.6453 48.9597 13.4029C47.3619 14.1674 46.6802 16.1002 47.4378 17.6834C48.2093 19.2957 50.1351 19.9629 51.7329 19.1984Z" fill="black"/>
</svg>
