<svg width="160" height="160" viewBox="0 0 160 160" fill="none" xmlns="http://www.w3.org/2000/svg">
<path d="M85.7868 8.34757C85.3427 5.5692 83.167 3.94531 80.4203 3.94531C77.0584 3.94531 74.5781 6.46361 74.5781 10.6185C74.5781 14.7733 77.0457 17.2916 80.4203 17.2916C83.2748 17.2916 85.3617 15.5028 85.7868 12.9338L83.8076 12.9274C83.4714 14.5894 82.0759 15.5028 80.433 15.5028C78.2065 15.5028 76.5255 13.7965 76.5255 10.6185C76.5255 7.46585 78.2002 5.73413 80.4393 5.73413C82.0949 5.73413 83.4841 6.66659 83.8076 8.34757H85.7868Z" fill="black"/>
<path d="M108.434 16.2679C109.783 12.3382 108.249 9.14896 105.069 8.05733C101.877 6.96158 98.7136 8.53809 97.3645 12.4678C96.0174 16.3916 97.5435 19.5848 100.735 20.6805C103.915 21.7721 107.085 20.1977 108.434 16.2679ZM106.598 15.6377C105.57 18.6315 103.428 19.7136 101.316 18.9886C99.1983 18.2616 98.1786 16.094 99.2063 13.1002C100.234 10.1064 102.37 9.02216 104.488 9.74922C106.6 10.4742 107.626 12.6439 106.598 15.6377Z" fill="black"/>
<path d="M115.779 27.7909L117.325 28.9948L120.345 25.1153L122.447 26.7517C122.482 26.779 122.512 26.8023 122.547 26.8296L121.61 32.3299L123.372 33.7013L124.33 27.7827C125.948 28.2951 127.388 27.7359 128.46 26.3593C129.929 24.4721 129.79 22.2339 127.412 20.3832L123.758 17.5391L115.779 27.7909ZM121.381 23.7838L124.272 20.0695L126.214 21.5812C127.741 22.7695 127.807 23.9863 126.903 25.1476C126.003 26.3039 124.85 26.4838 123.343 25.3111L121.381 23.7838Z" fill="black"/>
<path d="M130.937 42.1485L132.009 43.7894L135.832 41.2914L137.29 43.5217C138.938 46.0442 141.277 46.2964 143.284 44.9849C145.286 43.6769 145.997 41.4473 144.345 38.9196L141.812 35.043L130.937 42.1485ZM137.224 40.3823L141.477 37.6033L142.823 39.6637C143.885 41.2887 143.437 42.5284 142.205 43.3334C140.973 44.1383 139.632 44.0678 138.584 42.464L137.224 40.3823Z" fill="black"/>
<path d="M149.388 68.8389C153.416 67.819 155.247 64.7903 154.422 61.5312C153.593 58.2598 150.543 56.4737 146.515 57.4936C142.494 58.512 140.655 61.5361 141.484 64.8075C142.309 68.0665 145.361 69.8588 149.388 68.8389ZM148.912 66.9572C145.843 67.7343 143.766 66.5329 143.218 64.3683C142.668 62.1977 143.925 60.1584 146.993 59.3814C150.062 58.6044 152.138 59.7996 152.688 61.9703C153.236 64.1348 151.98 66.1802 148.912 66.9572Z" fill="black"/>
<path d="M143.764 81.2983L143.602 83.2517L148.502 83.6577L148.282 86.3128C148.278 86.357 148.275 86.3949 148.271 86.4392L143.154 88.663L142.97 90.8882L148.448 88.4525C148.904 90.0879 150.16 90.9876 151.899 91.1316C154.282 91.3291 156.08 89.9887 156.329 86.9859L156.711 82.3711L143.764 81.2983ZM150.183 83.797L154.874 84.1857L154.671 86.6385C154.511 88.5666 153.528 89.2871 152.062 89.1656C150.601 89.0446 149.82 88.1779 149.978 86.2751L150.183 83.797Z" fill="black"/>
<path d="M139.838 102.3L142.507 104.773L140.469 109.421L136.844 109.126L136.008 111.031L149.783 111.968L150.692 109.895L140.673 100.395L139.838 102.3ZM143.788 105.959L148.096 109.94L148.055 110.033L142.208 109.56L143.788 105.959Z" fill="black"/>
<path d="M138.727 127.099L135.986 130.077L127.67 122.421L126.347 123.859L134.663 131.514L131.918 134.497L133.159 135.639L139.969 128.242L138.727 127.099Z" fill="black"/>
<path d="M114.106 134.082L106.876 137.995L107.679 139.479L113.185 136.499L115.078 139.997L110.013 142.739L110.813 144.217L115.878 141.476L117.762 144.957L112.323 147.9L113.126 149.384L120.289 145.508L114.106 134.082Z" fill="black"/>
<path d="M91.4847 146.22C89.7535 146.509 88.5441 148.164 88.8383 149.927C89.1272 151.658 90.811 152.846 92.5422 152.557C94.2893 152.266 95.4802 150.598 95.1913 148.867C94.8971 147.104 93.2318 145.929 91.4847 146.22Z" fill="black"/>
<path d="M65.6422 151.813L63.7777 151.502C63.4915 153.564 65.0575 155.356 67.6603 155.79C70.2319 156.219 72.4481 155.078 72.8167 152.869C73.1142 151.086 72.0122 149.828 70.0466 148.928L68.6014 148.262C67.2917 147.67 66.3095 147.044 66.4995 145.905C66.7083 144.653 68.0412 144.027 69.6867 144.302C71.1758 144.55 72.304 145.42 72.1838 146.834L74.1234 147.158C74.3856 144.816 72.829 143.083 69.9572 142.604C66.9476 142.102 64.9504 143.395 64.5881 145.567C64.2028 147.875 66.112 149.114 67.6719 149.785L68.869 150.32C69.8273 150.743 71.0817 151.435 70.8708 152.66C70.6891 153.749 69.5596 154.39 67.9829 154.127C66.5125 153.881 65.5825 153.019 65.6422 151.813Z" fill="black"/>
<path d="M53.8628 138.028L46.6327 134.115L45.8296 135.599L51.3358 138.579L49.4429 142.077L44.3773 139.335L43.5773 140.814L48.6428 143.555L46.7589 147.036L41.3196 144.093L40.5165 145.577L47.6797 149.453L53.8628 138.028Z" fill="black"/>
<path d="M36.722 126.455L35.3944 125.013L31.7776 128.343L29.9732 126.383C29.9431 126.35 29.9173 126.322 29.8872 126.289L31.7169 121.018L30.2046 119.376L28.2862 125.056C26.7738 124.284 25.2614 124.599 23.978 125.78C22.2186 127.4 21.9872 129.63 24.0278 131.847L27.1641 135.254L36.722 126.455ZM30.5361 129.486L27.0733 132.673L25.4064 130.863C24.096 129.439 24.2314 128.228 25.3141 127.231C26.3922 126.239 27.5589 126.251 28.852 127.656L30.5361 129.486Z" fill="black"/>
<path d="M12.0161 114.525L12.8672 116.465L22.8861 106.965L21.9765 104.891L8.20164 105.829L9.0527 107.769L20.1946 106.83L20.2532 106.963L12.0161 114.525Z" fill="black"/>
<path d="M4.26002 85.8982L4.42188 87.8516L17.3686 86.7788L17.2067 84.8254L4.26002 85.8982Z" fill="black"/>
<path d="M11.8316 57.4259C9.02919 57.1744 6.92089 58.8849 6.24664 61.5475C5.42135 64.8066 7.25374 67.8291 11.2815 68.8491C15.3092 69.869 18.3562 68.0952 19.1846 64.8238C19.8853 62.0566 18.6635 59.5944 16.2774 58.5518L15.7855 60.4688C17.314 61.2027 17.8569 62.7797 17.4536 64.3724C16.9071 66.5307 14.8403 67.7414 11.7595 66.9613C8.70336 66.1874 7.43572 64.1389 7.98539 61.9682C8.39181 60.3632 9.63676 59.2455 11.3457 59.3445L11.8316 57.4259Z" fill="black"/>
<path d="M25.0944 49.2539L29.5909 42.3717L28.1783 41.4488L24.7539 46.6901L21.4243 44.5148L24.5746 39.6929L23.1674 38.7735L20.0171 43.5954L16.7034 41.4304L20.0861 36.2528L18.6736 35.3299L14.2188 42.1484L25.0944 49.2539Z" fill="black"/>
<path d="M37.749 21.2165L39.2407 20.0554C37.9177 18.4486 35.5388 18.3871 33.4564 20.0079C31.399 21.6092 30.7378 24.0128 32.1131 25.7799C33.2235 27.2065 34.8954 27.2477 36.889 26.4114L38.3575 25.7989C39.6798 25.2359 40.8063 24.9379 41.5154 25.849C42.2946 26.8501 41.8528 28.255 40.5363 29.2797C39.3449 30.207 37.9408 30.4478 36.9818 29.4017L35.43 30.6095C36.9756 32.3887 39.3045 32.4168 41.6021 30.6285C44.0099 28.7544 44.4108 26.4088 43.0588 24.6718C41.6212 22.8246 39.4171 23.3906 37.8663 24.0833L36.6625 24.6022C35.7018 25.0203 34.3434 25.4748 33.5848 24.4898C32.9068 23.6188 33.2002 22.3535 34.4616 21.3717C35.638 20.4561 36.9025 20.3561 37.749 21.2165Z" fill="black"/>
<path d="M58.7024 17.8747C60.3624 17.3049 61.283 15.4736 60.7027 13.7831C60.1328 12.1231 58.2763 11.2282 56.6163 11.7981C54.941 12.3732 54.0409 14.2144 54.6108 15.8745C55.1911 17.565 57.0271 18.4499 58.7024 17.8747Z" fill="black"/>
</svg>
