<svg width="67" height="11" viewBox="0 0 67 11" fill="none" xmlns="http://www.w3.org/2000/svg">
<mask id="path-1-outside-1_1030_2610" maskUnits="userSpaceOnUse" x="-0.120117" y="0" width="67" height="11" fill="black">
<rect fill="white" x="-0.120117" width="67" height="11"/>
<path d="M0.879883 10.1611V1.42114H1.72987V10.1611H0.879883ZM4.24988 10.1611V1.42114H5.08987L9.54988 7.71112L10.2699 8.89111C10.2199 8.41111 10.1899 8.02112 10.1899 7.71112V1.42114H11.0499V10.1611H10.2199L5.74988 3.87109L5.02988 2.6911C5.07332 3.08298 5.09669 3.47682 5.09988 3.87109V10.1611H4.24988ZM15.8099 10.1611L12.5699 1.42114H13.4899L15.9199 8.0611L16.2599 9.18109C16.3799 8.73109 16.4899 8.3611 16.5999 8.0611L19.0199 1.42114H19.9999L16.7699 10.1611H15.8099ZM21.4499 10.1611V1.42114H26.3699V2.1911H22.3099V5.37109H25.6299V6.15112H22.3099V9.39111H26.5999V10.1611H21.4499ZM27.7399 9.16113L28.2499 8.5011C28.5384 8.79268 28.8772 9.02982 29.2499 9.20111C29.6387 9.36826 30.0567 9.45664 30.4799 9.46112C30.9389 9.48251 31.39 9.33688 31.7499 9.05115C31.9114 8.92233 32.0406 8.75765 32.1274 8.57019C32.2142 8.38273 32.2561 8.17761 32.2499 7.97113C32.2564 7.68736 32.1685 7.40942 31.9999 7.18109C31.8387 6.94688 31.6268 6.75209 31.3799 6.61115C31.1082 6.44595 30.824 6.30212 30.5299 6.18109L29.5999 5.74115C29.3086 5.60185 29.0278 5.44138 28.7599 5.26111C28.5073 5.06997 28.2934 4.83238 28.1299 4.5611C27.9721 4.25177 27.8931 3.90828 27.8999 3.5611C27.8881 3.23795 27.9526 2.91658 28.0881 2.62299C28.2236 2.32939 28.4263 2.0718 28.6799 1.87109C29.2463 1.42021 29.9566 1.18938 30.6799 1.22113C31.5315 1.19064 32.3611 1.49587 32.9899 2.07111L32.5699 2.79114C32.3133 2.55208 32.0104 2.36824 31.6799 2.2511C31.3628 2.11855 31.0235 2.04734 30.6799 2.04114C30.2108 2.02432 29.7496 2.16511 29.3699 2.4411C29.2018 2.56283 29.0664 2.72422 28.9756 2.91089C28.8849 3.09756 28.8417 3.30373 28.8499 3.51111C28.8477 3.78342 28.9317 4.04947 29.0899 4.27112C29.2579 4.4885 29.469 4.66895 29.7099 4.80115C29.9699 4.94115 30.2499 5.08112 30.5499 5.21112C30.8499 5.34112 31.1799 5.4911 31.4899 5.6311C31.7838 5.77319 32.0648 5.94048 32.3299 6.1311C32.6001 6.33133 32.8196 6.59218 32.9707 6.89264C33.1218 7.1931 33.2003 7.52483 33.1999 7.86115C33.2086 8.18397 33.149 8.50501 33.0249 8.80316C32.9008 9.10132 32.7151 9.36984 32.4799 9.59113C31.9425 10.0608 31.2425 10.3013 30.5299 10.2611C30.0162 10.2847 29.5032 10.2018 29.023 10.0177C28.5429 9.83356 28.106 9.55214 27.7399 9.1911V9.16113ZM37.1499 10.1611V2.16113H33.9999V1.39111H41.1399V2.16113H37.9999V10.1611H37.1499ZM42.6099 10.1611V1.42114H45.6099C46.2323 1.3968 46.8406 1.61144 47.3099 2.02112C47.5327 2.22136 47.7077 2.4691 47.8219 2.74603C47.9362 3.02297 47.9867 3.322 47.9699 3.62109C47.9909 4.01164 47.897 4.39979 47.6997 4.73749C47.5024 5.07519 47.2104 5.34764 46.8599 5.52112V5.52112C47.3031 5.63479 47.686 5.91394 47.9299 6.30115C48.201 6.70951 48.3406 7.19104 48.3299 7.68109C48.3464 8.01651 48.2876 8.35139 48.1578 8.66113C48.028 8.97087 47.8305 9.24765 47.5799 9.47113C47.0628 9.92036 46.3944 10.1563 45.7099 10.1311L42.6099 10.1611ZM43.4699 5.16113H45.5999C45.7975 5.16835 45.9945 5.13476 46.1786 5.0625C46.3627 4.99024 46.5299 4.88088 46.6699 4.74115C46.8085 4.59262 46.9161 4.41793 46.9865 4.22736C47.0569 4.03678 47.0886 3.83408 47.0799 3.6311C47.0886 3.43266 47.0567 3.23453 46.9862 3.04883C46.9157 2.86313 46.8081 2.69381 46.6699 2.55115C46.5242 2.4114 46.3514 2.30293 46.1623 2.23242C45.9731 2.16191 45.7715 2.13082 45.5699 2.14111H43.4699V5.16113ZM43.4699 9.34113H45.7099C45.9381 9.359 46.1675 9.32738 46.3824 9.24841C46.5973 9.16944 46.7927 9.04496 46.955 8.88354C47.1174 8.72213 47.243 8.52754 47.3232 8.31311C47.4034 8.09868 47.4364 7.86947 47.4199 7.64111C47.4272 7.4151 47.3873 7.19008 47.3029 6.98029C47.2186 6.77049 47.0914 6.58055 46.9297 6.42255C46.7679 6.26454 46.575 6.14187 46.3633 6.06244C46.1516 5.983 45.9257 5.94852 45.6999 5.96112H43.4699V9.34113ZM49.6899 5.67114C49.6613 5.06835 49.7554 4.46602 49.9664 3.90063C50.1774 3.33525 50.5009 2.81854 50.9174 2.38184C51.3339 1.94513 51.8347 1.59751 52.3894 1.35999C52.9442 1.12246 53.5414 1 54.1449 1C54.7483 1 55.3455 1.12246 55.9003 1.35999C56.4551 1.59751 56.9558 1.94513 57.3723 2.38184C57.7888 2.81854 58.1124 3.33525 58.3234 3.90063C58.5344 4.46602 58.6285 5.06835 58.5999 5.67114C58.6146 6.27305 58.5099 6.87186 58.2919 7.43311C58.0739 7.99435 57.747 8.50688 57.3299 8.9411C56.9119 9.35987 56.4154 9.69214 55.8689 9.91882C55.3224 10.1455 54.7365 10.2621 54.1449 10.2621C53.5532 10.2621 52.9674 10.1455 52.4208 9.91882C51.8743 9.69214 51.3778 9.35987 50.9599 8.9411C50.547 8.51414 50.2223 8.01003 50.0044 7.45752C49.7865 6.90501 49.6796 6.31497 49.6899 5.72113V5.67114ZM50.5899 5.67114C50.5604 6.66678 50.919 7.63485 51.5899 8.37109C51.9138 8.72198 52.3087 8.99981 52.7484 9.18604C53.1882 9.37226 53.6625 9.46263 54.1399 9.45111C54.6159 9.46314 55.0889 9.37295 55.527 9.18665C55.9652 9.00034 56.3583 8.72223 56.6799 8.37109C57.3563 7.63826 57.7158 6.66782 57.6799 5.67114C57.6948 5.193 57.6141 4.71669 57.4424 4.2702C57.2706 3.82371 57.0114 3.416 56.6799 3.07111C56.3486 2.73797 55.9518 2.47711 55.5146 2.30499C55.0775 2.13288 54.6094 2.05325 54.1399 2.07111C53.669 2.05427 53.1997 2.13438 52.761 2.3064C52.3224 2.47841 51.9238 2.73867 51.5899 3.07111C51.2536 3.42292 50.9918 3.83893 50.8199 4.29425C50.6481 4.74957 50.5699 5.23488 50.5899 5.72113V5.67114ZM59.2799 10.1111L62.0599 5.55115L59.5099 1.37109H60.5099L62.0399 3.96112L62.6099 4.96112C62.7659 4.61724 62.9429 4.28327 63.1399 3.96112L64.6799 1.37109H65.6799L63.1199 5.55115L65.9199 10.1111H64.9199L63.0899 7.11115L62.5399 6.11115C62.3699 6.46115 62.1899 6.79115 62.0099 7.11115L60.2199 10.1111H59.2799Z"/>
</mask>
<path d="M0.879883 10.1611V1.42114H1.72987V10.1611H0.879883ZM4.24988 10.1611V1.42114H5.08987L9.54988 7.71112L10.2699 8.89111C10.2199 8.41111 10.1899 8.02112 10.1899 7.71112V1.42114H11.0499V10.1611H10.2199L5.74988 3.87109L5.02988 2.6911C5.07332 3.08298 5.09669 3.47682 5.09988 3.87109V10.1611H4.24988ZM15.8099 10.1611L12.5699 1.42114H13.4899L15.9199 8.0611L16.2599 9.18109C16.3799 8.73109 16.4899 8.3611 16.5999 8.0611L19.0199 1.42114H19.9999L16.7699 10.1611H15.8099ZM21.4499 10.1611V1.42114H26.3699V2.1911H22.3099V5.37109H25.6299V6.15112H22.3099V9.39111H26.5999V10.1611H21.4499ZM27.7399 9.16113L28.2499 8.5011C28.5384 8.79268 28.8772 9.02982 29.2499 9.20111C29.6387 9.36826 30.0567 9.45664 30.4799 9.46112C30.9389 9.48251 31.39 9.33688 31.7499 9.05115C31.9114 8.92233 32.0406 8.75765 32.1274 8.57019C32.2142 8.38273 32.2561 8.17761 32.2499 7.97113C32.2564 7.68736 32.1685 7.40942 31.9999 7.18109C31.8387 6.94688 31.6268 6.75209 31.3799 6.61115C31.1082 6.44595 30.824 6.30212 30.5299 6.18109L29.5999 5.74115C29.3086 5.60185 29.0278 5.44138 28.7599 5.26111C28.5073 5.06997 28.2934 4.83238 28.1299 4.5611C27.9721 4.25177 27.8931 3.90828 27.8999 3.5611C27.8881 3.23795 27.9526 2.91658 28.0881 2.62299C28.2236 2.32939 28.4263 2.0718 28.6799 1.87109C29.2463 1.42021 29.9566 1.18938 30.6799 1.22113C31.5315 1.19064 32.3611 1.49587 32.9899 2.07111L32.5699 2.79114C32.3133 2.55208 32.0104 2.36824 31.6799 2.2511C31.3628 2.11855 31.0235 2.04734 30.6799 2.04114C30.2108 2.02432 29.7496 2.16511 29.3699 2.4411C29.2018 2.56283 29.0664 2.72422 28.9756 2.91089C28.8849 3.09756 28.8417 3.30373 28.8499 3.51111C28.8477 3.78342 28.9317 4.04947 29.0899 4.27112C29.2579 4.4885 29.469 4.66895 29.7099 4.80115C29.9699 4.94115 30.2499 5.08112 30.5499 5.21112C30.8499 5.34112 31.1799 5.4911 31.4899 5.6311C31.7838 5.77319 32.0648 5.94048 32.3299 6.1311C32.6001 6.33133 32.8196 6.59218 32.9707 6.89264C33.1218 7.1931 33.2003 7.52483 33.1999 7.86115C33.2086 8.18397 33.149 8.50501 33.0249 8.80316C32.9008 9.10132 32.7151 9.36984 32.4799 9.59113C31.9425 10.0608 31.2425 10.3013 30.5299 10.2611C30.0162 10.2847 29.5032 10.2018 29.023 10.0177C28.5429 9.83356 28.106 9.55214 27.7399 9.1911V9.16113ZM37.1499 10.1611V2.16113H33.9999V1.39111H41.1399V2.16113H37.9999V10.1611H37.1499ZM42.6099 10.1611V1.42114H45.6099C46.2323 1.3968 46.8406 1.61144 47.3099 2.02112C47.5327 2.22136 47.7077 2.4691 47.8219 2.74603C47.9362 3.02297 47.9867 3.322 47.9699 3.62109C47.9909 4.01164 47.897 4.39979 47.6997 4.73749C47.5024 5.07519 47.2104 5.34764 46.8599 5.52112V5.52112C47.3031 5.63479 47.686 5.91394 47.9299 6.30115C48.201 6.70951 48.3406 7.19104 48.3299 7.68109C48.3464 8.01651 48.2876 8.35139 48.1578 8.66113C48.028 8.97087 47.8305 9.24765 47.5799 9.47113C47.0628 9.92036 46.3944 10.1563 45.7099 10.1311L42.6099 10.1611ZM43.4699 5.16113H45.5999C45.7975 5.16835 45.9945 5.13476 46.1786 5.0625C46.3627 4.99024 46.5299 4.88088 46.6699 4.74115C46.8085 4.59262 46.9161 4.41793 46.9865 4.22736C47.0569 4.03678 47.0886 3.83408 47.0799 3.6311C47.0886 3.43266 47.0567 3.23453 46.9862 3.04883C46.9157 2.86313 46.8081 2.69381 46.6699 2.55115C46.5242 2.4114 46.3514 2.30293 46.1623 2.23242C45.9731 2.16191 45.7715 2.13082 45.5699 2.14111H43.4699V5.16113ZM43.4699 9.34113H45.7099C45.9381 9.359 46.1675 9.32738 46.3824 9.24841C46.5973 9.16944 46.7927 9.04496 46.955 8.88354C47.1174 8.72213 47.243 8.52754 47.3232 8.31311C47.4034 8.09868 47.4364 7.86947 47.4199 7.64111C47.4272 7.4151 47.3873 7.19008 47.3029 6.98029C47.2186 6.77049 47.0914 6.58055 46.9297 6.42255C46.7679 6.26454 46.575 6.14187 46.3633 6.06244C46.1516 5.983 45.9257 5.94852 45.6999 5.96112H43.4699V9.34113ZM49.6899 5.67114C49.6613 5.06835 49.7554 4.46602 49.9664 3.90063C50.1774 3.33525 50.5009 2.81854 50.9174 2.38184C51.3339 1.94513 51.8347 1.59751 52.3894 1.35999C52.9442 1.12246 53.5414 1 54.1449 1C54.7483 1 55.3455 1.12246 55.9003 1.35999C56.4551 1.59751 56.9558 1.94513 57.3723 2.38184C57.7888 2.81854 58.1124 3.33525 58.3234 3.90063C58.5344 4.46602 58.6285 5.06835 58.5999 5.67114C58.6146 6.27305 58.5099 6.87186 58.2919 7.43311C58.0739 7.99435 57.747 8.50688 57.3299 8.9411C56.9119 9.35987 56.4154 9.69214 55.8689 9.91882C55.3224 10.1455 54.7365 10.2621 54.1449 10.2621C53.5532 10.2621 52.9674 10.1455 52.4208 9.91882C51.8743 9.69214 51.3778 9.35987 50.9599 8.9411C50.547 8.51414 50.2223 8.01003 50.0044 7.45752C49.7865 6.90501 49.6796 6.31497 49.6899 5.72113V5.67114ZM50.5899 5.67114C50.5604 6.66678 50.919 7.63485 51.5899 8.37109C51.9138 8.72198 52.3087 8.99981 52.7484 9.18604C53.1882 9.37226 53.6625 9.46263 54.1399 9.45111C54.6159 9.46314 55.0889 9.37295 55.527 9.18665C55.9652 9.00034 56.3583 8.72223 56.6799 8.37109C57.3563 7.63826 57.7158 6.66782 57.6799 5.67114C57.6948 5.193 57.6141 4.71669 57.4424 4.2702C57.2706 3.82371 57.0114 3.416 56.6799 3.07111C56.3486 2.73797 55.9518 2.47711 55.5146 2.30499C55.0775 2.13288 54.6094 2.05325 54.1399 2.07111C53.669 2.05427 53.1997 2.13438 52.761 2.3064C52.3224 2.47841 51.9238 2.73867 51.5899 3.07111C51.2536 3.42292 50.9918 3.83893 50.8199 4.29425C50.6481 4.74957 50.5699 5.23488 50.5899 5.72113V5.67114ZM59.2799 10.1111L62.0599 5.55115L59.5099 1.37109H60.5099L62.0399 3.96112L62.6099 4.96112C62.7659 4.61724 62.9429 4.28327 63.1399 3.96112L64.6799 1.37109H65.6799L63.1199 5.55115L65.9199 10.1111H64.9199L63.0899 7.11115L62.5399 6.11115C62.3699 6.46115 62.1899 6.79115 62.0099 7.11115L60.2199 10.1111H59.2799Z" fill="black"/>
<path d="M0.879883 10.1611V1.42114H1.72987V10.1611H0.879883ZM4.24988 10.1611V1.42114H5.08987L9.54988 7.71112L10.2699 8.89111C10.2199 8.41111 10.1899 8.02112 10.1899 7.71112V1.42114H11.0499V10.1611H10.2199L5.74988 3.87109L5.02988 2.6911C5.07332 3.08298 5.09669 3.47682 5.09988 3.87109V10.1611H4.24988ZM15.8099 10.1611L12.5699 1.42114H13.4899L15.9199 8.0611L16.2599 9.18109C16.3799 8.73109 16.4899 8.3611 16.5999 8.0611L19.0199 1.42114H19.9999L16.7699 10.1611H15.8099ZM21.4499 10.1611V1.42114H26.3699V2.1911H22.3099V5.37109H25.6299V6.15112H22.3099V9.39111H26.5999V10.1611H21.4499ZM27.7399 9.16113L28.2499 8.5011C28.5384 8.79268 28.8772 9.02982 29.2499 9.20111C29.6387 9.36826 30.0567 9.45664 30.4799 9.46112C30.9389 9.48251 31.39 9.33688 31.7499 9.05115C31.9114 8.92233 32.0406 8.75765 32.1274 8.57019C32.2142 8.38273 32.2561 8.17761 32.2499 7.97113C32.2564 7.68736 32.1685 7.40942 31.9999 7.18109C31.8387 6.94688 31.6268 6.75209 31.3799 6.61115C31.1082 6.44595 30.824 6.30212 30.5299 6.18109L29.5999 5.74115C29.3086 5.60185 29.0278 5.44138 28.7599 5.26111C28.5073 5.06997 28.2934 4.83238 28.1299 4.5611C27.9721 4.25177 27.8931 3.90828 27.8999 3.5611C27.8881 3.23795 27.9526 2.91658 28.0881 2.62299C28.2236 2.32939 28.4263 2.0718 28.6799 1.87109C29.2463 1.42021 29.9566 1.18938 30.6799 1.22113C31.5315 1.19064 32.3611 1.49587 32.9899 2.07111L32.5699 2.79114C32.3133 2.55208 32.0104 2.36824 31.6799 2.2511C31.3628 2.11855 31.0235 2.04734 30.6799 2.04114C30.2108 2.02432 29.7496 2.16511 29.3699 2.4411C29.2018 2.56283 29.0664 2.72422 28.9756 2.91089C28.8849 3.09756 28.8417 3.30373 28.8499 3.51111C28.8477 3.78342 28.9317 4.04947 29.0899 4.27112C29.2579 4.4885 29.469 4.66895 29.7099 4.80115C29.9699 4.94115 30.2499 5.08112 30.5499 5.21112C30.8499 5.34112 31.1799 5.4911 31.4899 5.6311C31.7838 5.77319 32.0648 5.94048 32.3299 6.1311C32.6001 6.33133 32.8196 6.59218 32.9707 6.89264C33.1218 7.1931 33.2003 7.52483 33.1999 7.86115C33.2086 8.18397 33.149 8.50501 33.0249 8.80316C32.9008 9.10132 32.7151 9.36984 32.4799 9.59113C31.9425 10.0608 31.2425 10.3013 30.5299 10.2611C30.0162 10.2847 29.5032 10.2018 29.023 10.0177C28.5429 9.83356 28.106 9.55214 27.7399 9.1911V9.16113ZM37.1499 10.1611V2.16113H33.9999V1.39111H41.1399V2.16113H37.9999V10.1611H37.1499ZM42.6099 10.1611V1.42114H45.6099C46.2323 1.3968 46.8406 1.61144 47.3099 2.02112C47.5327 2.22136 47.7077 2.4691 47.8219 2.74603C47.9362 3.02297 47.9867 3.322 47.9699 3.62109C47.9909 4.01164 47.897 4.39979 47.6997 4.73749C47.5024 5.07519 47.2104 5.34764 46.8599 5.52112V5.52112C47.3031 5.63479 47.686 5.91394 47.9299 6.30115C48.201 6.70951 48.3406 7.19104 48.3299 7.68109C48.3464 8.01651 48.2876 8.35139 48.1578 8.66113C48.028 8.97087 47.8305 9.24765 47.5799 9.47113C47.0628 9.92036 46.3944 10.1563 45.7099 10.1311L42.6099 10.1611ZM43.4699 5.16113H45.5999C45.7975 5.16835 45.9945 5.13476 46.1786 5.0625C46.3627 4.99024 46.5299 4.88088 46.6699 4.74115C46.8085 4.59262 46.9161 4.41793 46.9865 4.22736C47.0569 4.03678 47.0886 3.83408 47.0799 3.6311C47.0886 3.43266 47.0567 3.23453 46.9862 3.04883C46.9157 2.86313 46.8081 2.69381 46.6699 2.55115C46.5242 2.4114 46.3514 2.30293 46.1623 2.23242C45.9731 2.16191 45.7715 2.13082 45.5699 2.14111H43.4699V5.16113ZM43.4699 9.34113H45.7099C45.9381 9.359 46.1675 9.32738 46.3824 9.24841C46.5973 9.16944 46.7927 9.04496 46.955 8.88354C47.1174 8.72213 47.243 8.52754 47.3232 8.31311C47.4034 8.09868 47.4364 7.86947 47.4199 7.64111C47.4272 7.4151 47.3873 7.19008 47.3029 6.98029C47.2186 6.77049 47.0914 6.58055 46.9297 6.42255C46.7679 6.26454 46.575 6.14187 46.3633 6.06244C46.1516 5.983 45.9257 5.94852 45.6999 5.96112H43.4699V9.34113ZM49.6899 5.67114C49.6613 5.06835 49.7554 4.46602 49.9664 3.90063C50.1774 3.33525 50.5009 2.81854 50.9174 2.38184C51.3339 1.94513 51.8347 1.59751 52.3894 1.35999C52.9442 1.12246 53.5414 1 54.1449 1C54.7483 1 55.3455 1.12246 55.9003 1.35999C56.4551 1.59751 56.9558 1.94513 57.3723 2.38184C57.7888 2.81854 58.1124 3.33525 58.3234 3.90063C58.5344 4.46602 58.6285 5.06835 58.5999 5.67114C58.6146 6.27305 58.5099 6.87186 58.2919 7.43311C58.0739 7.99435 57.747 8.50688 57.3299 8.9411C56.9119 9.35987 56.4154 9.69214 55.8689 9.91882C55.3224 10.1455 54.7365 10.2621 54.1449 10.2621C53.5532 10.2621 52.9674 10.1455 52.4208 9.91882C51.8743 9.69214 51.3778 9.35987 50.9599 8.9411C50.547 8.51414 50.2223 8.01003 50.0044 7.45752C49.7865 6.90501 49.6796 6.31497 49.6899 5.72113V5.67114ZM50.5899 5.67114C50.5604 6.66678 50.919 7.63485 51.5899 8.37109C51.9138 8.72198 52.3087 8.99981 52.7484 9.18604C53.1882 9.37226 53.6625 9.46263 54.1399 9.45111C54.6159 9.46314 55.0889 9.37295 55.527 9.18665C55.9652 9.00034 56.3583 8.72223 56.6799 8.37109C57.3563 7.63826 57.7158 6.66782 57.6799 5.67114C57.6948 5.193 57.6141 4.71669 57.4424 4.2702C57.2706 3.82371 57.0114 3.416 56.6799 3.07111C56.3486 2.73797 55.9518 2.47711 55.5146 2.30499C55.0775 2.13288 54.6094 2.05325 54.1399 2.07111C53.669 2.05427 53.1997 2.13438 52.761 2.3064C52.3224 2.47841 51.9238 2.73867 51.5899 3.07111C51.2536 3.42292 50.9918 3.83893 50.8199 4.29425C50.6481 4.74957 50.5699 5.23488 50.5899 5.72113V5.67114ZM59.2799 10.1111L62.0599 5.55115L59.5099 1.37109H60.5099L62.0399 3.96112L62.6099 4.96112C62.7659 4.61724 62.9429 4.28327 63.1399 3.96112L64.6799 1.37109H65.6799L63.1199 5.55115L65.9199 10.1111H64.9199L63.0899 7.11115L62.5399 6.11115C62.3699 6.46115 62.1899 6.79115 62.0099 7.11115L60.2199 10.1111H59.2799Z" stroke="black" stroke-width="0.3" mask="url(#path-1-outside-1_1030_2610)"/>
</svg>
