<svg width="87" height="41" viewBox="0 0 87 41" fill="none" xmlns="http://www.w3.org/2000/svg">
<g clip-path="url(#clip0_824_2646)">
<path d="M0.189941 13.8424H2.9421V8.05947H5.33792C6.74292 9.76016 7.79712 11.7262 8.43883 13.8424H11.4715C10.6928 11.2275 9.38101 8.8051 7.62001 6.73023C9.19295 4.85388 10.3208 2.64104 10.918 0.259766H7.97634C7.50511 2.22474 6.59203 4.05432 5.30759 5.60726H2.9421V0.259766H0.189941V13.8424Z" fill="black"/>
<path d="M19.9019 11.5874C17.453 11.5874 15.7775 9.93727 15.7775 7.05726C15.7775 4.17725 17.3848 2.55008 19.9019 2.55008C22.419 2.55008 24.0264 4.20781 24.0264 7.08781C24.0264 9.96782 22.419 11.5874 19.9019 11.5874ZM19.9019 14.0854C24.1628 14.0854 26.8847 11.3505 26.8847 7.05726C26.8847 2.76399 24.2159 0.0214844 19.9019 0.0214844C15.5879 0.0214844 12.9268 2.76399 12.9268 7.05726C12.9268 11.3505 15.6031 14.0854 19.9019 14.0854Z" fill="black"/>
<path d="M29.6143 13.8424H32.3664V6.46286C32.3664 4.07176 33.7387 2.71197 36.1573 2.71197H38.2574V0.259766H36.0511C31.957 0.259766 29.6143 2.55155 29.6143 6.66912V13.8424Z" fill="black"/>
<path d="M46.506 11.6499C44.1632 11.6499 42.7151 10.122 42.7151 7.06633C42.7151 4.01062 44.1708 2.48277 46.506 2.48277C48.8411 2.48277 50.2968 4.01062 50.2968 7.06633C50.2968 10.122 48.8563 11.6499 46.506 11.6499ZM39.9326 18.1891H42.6848V12.6812C43.2281 13.1818 43.866 13.5669 44.5602 13.8136C45.2545 14.0604 45.991 14.1637 46.7258 14.1174C50.7365 14.1174 53.193 11.6499 53.193 7.05869C53.193 2.46749 50.6835 0 46.5363 0C42.3891 0 39.9326 2.52096 39.9326 7.00522V18.1891Z" fill="black"/>
<path d="M61.9195 14.1174C68.0683 14.1174 68.0911 9.44982 68.0911 7.79209V0.259766H65.3465V8.00599C65.3465 9.1748 65.1797 11.6499 61.9195 11.6499C58.6594 11.6499 58.4699 9.1748 58.4699 8.00599V0.259766H55.748V7.78445C55.748 9.4269 55.8087 14.1174 61.9195 14.1174Z" fill="black"/>
<path d="M75.9309 14.1174C79.4943 14.1174 81.1319 12.4596 81.1319 10.0991C81.1319 4.64465 73.7246 6.65378 73.7246 3.80433C73.7246 2.95637 74.369 2.49801 75.6124 2.49801C76.2007 2.47579 76.7866 2.58636 77.327 2.82163C77.8675 3.0569 78.3489 3.41093 78.7361 3.85781L80.8665 2.11605C80.2309 1.41328 79.4499 0.859572 78.5788 0.493953C77.7077 0.128335 76.7675 -0.0402889 75.8247 -2.8953e-05C72.5949 -2.8953e-05 70.8663 1.71117 70.8663 4.07171C70.8663 9.12127 78.2812 7.19617 78.2812 10.2366C78.2812 11.161 77.6064 11.6193 76.3099 11.6193C75.5963 11.6395 74.889 11.4787 74.2532 11.1517C73.6173 10.8247 73.0731 10.3419 72.6707 9.74769L70.5479 11.4818C71.1506 12.3441 71.9606 13.0381 72.902 13.4991C73.8435 13.96 74.8856 14.1728 75.9309 14.1174Z" fill="black"/>
<path d="M6.57333 34.4528C4.23059 34.4528 2.78248 32.925 2.78248 29.8692C2.78248 26.8135 4.23817 25.2857 6.57333 25.2857C8.9085 25.2857 10.3642 26.8135 10.3642 29.8692C10.3642 32.925 8.92366 34.4528 6.57333 34.4528ZM0 40.992H2.75215V35.4841C3.29488 35.986 3.93245 36.3726 4.62677 36.6206C5.32108 36.8687 6.0579 36.9732 6.7932 36.9279C10.8039 36.9279 13.2604 34.4604 13.2604 29.8692C13.2604 25.278 10.7508 22.8105 6.60366 22.8105C2.45647 22.8105 0 25.3391 0 29.8158V40.992Z" fill="black"/>
<path d="M16.0044 36.6524H18.7566V29.2882C18.7566 26.8971 20.1289 25.5449 22.5475 25.5449H24.6552V23.0469H22.4186C18.3245 23.0469 15.9741 25.3387 15.9741 29.4562L16.0044 36.6524Z" fill="black"/>
<path d="M32.5479 34.4529C30.2734 34.4529 28.8632 33.0167 28.8632 29.8693C28.8632 26.7219 30.2885 25.2857 32.5479 25.2857C35.0271 25.2857 36.4828 26.8136 36.4828 29.8693C36.4828 32.925 35.0044 34.4529 32.5479 34.4529ZM39.2349 36.653V23.078H37.1348L36.8391 24.8426C36.2602 24.1478 35.5263 23.6009 34.6975 23.2464C33.8687 22.8919 32.9685 22.7399 32.0702 22.803C28.4538 22.803 26.0049 25.2475 26.0049 29.8616C26.0049 34.4758 28.4841 36.9203 32.0702 36.9203C34.1931 36.9203 35.8156 36.3016 36.8619 34.9418L37.1348 36.653H39.2349Z" fill="black"/>
<path d="M46.832 36.6551H50.3348C52.8602 32.5117 54.5191 27.8923 55.2098 23.0801H52.4349C51.8298 27.0293 50.547 30.8421 48.644 34.348H48.591C46.5569 30.8609 45.1263 27.0506 44.3604 23.0801H41.4263C42.3247 27.9192 44.1617 32.5323 46.832 36.6551Z" fill="black"/>
<path d="M63.2166 34.4529C60.9421 34.4529 59.5243 33.0167 59.5243 29.8693C59.5243 26.7219 60.9497 25.2857 63.2166 25.2857C65.6958 25.2857 67.1515 26.8136 67.1515 29.8693C67.1515 32.925 65.6655 34.4529 63.2166 34.4529ZM69.8961 36.653V23.078H67.7959L67.5003 24.8426C66.9213 24.1478 66.1875 23.6009 65.3587 23.2464C64.5299 22.8919 63.6296 22.7399 62.7314 22.803C59.1225 22.803 56.666 25.2475 56.666 29.8616C56.666 34.4758 59.1452 36.9203 62.7314 36.9203C64.8618 36.9203 66.4767 36.3016 67.5306 34.9418L67.7959 36.653H69.8961Z" fill="black"/>
<path d="M85.2414 3.81806C84.8931 3.81806 84.5528 3.71392 84.2634 3.51883C83.9739 3.32375 83.7485 3.0465 83.6156 2.72221C83.4827 2.39792 83.4483 2.04117 83.5168 1.69717C83.5853 1.35317 83.7535 1.03739 84.0003 0.789832C84.247 0.542277 84.5612 0.374087 84.9029 0.306567C85.2446 0.239047 85.5985 0.275235 85.9198 0.41055C86.241 0.545864 86.5152 0.774214 86.7076 1.06667C86.8999 1.35913 87.0018 1.70254 87.0003 2.05339C86.9983 2.52211 86.8121 2.97095 86.4825 3.30167C86.1528 3.63239 85.7065 3.81807 85.2414 3.81806ZM85.2414 0.57137C84.9504 0.57137 84.6661 0.658288 84.4242 0.821135C84.1823 0.983981 83.9938 1.21544 83.8825 1.48624C83.7712 1.75705 83.742 2.05503 83.7988 2.34252C83.8555 2.63 83.9956 2.89407 84.2013 3.10134C84.407 3.3086 84.6691 3.44975 84.9544 3.50693C85.2397 3.56412 85.5355 3.53477 85.8042 3.4226C86.073 3.31043 86.3027 3.12047 86.4643 2.87676C86.6259 2.63304 86.7122 2.3465 86.7122 2.05339C86.7122 1.66033 86.5572 1.28338 86.2814 1.00544C86.0056 0.727511 85.6314 0.57137 85.2414 0.57137Z" fill="black"/>
<path d="M85.2489 2.12374H84.8926V2.796H84.6196V1.20703H85.1049C85.5673 1.20703 85.8099 1.31398 85.8099 1.66539C85.8146 1.75688 85.7876 1.84716 85.7338 1.92095C85.6799 1.99473 85.6023 2.04748 85.5143 2.07027L85.8782 2.8342H85.5673L85.2489 2.12374ZM84.8926 1.42857V1.90221H85.1731C85.4081 1.90221 85.5446 1.85637 85.5446 1.66539C85.5446 1.47441 85.3778 1.42857 85.1579 1.42857H84.8926Z" fill="black"/>
</g>
<defs>
<clipPath id="clip0_824_2646">
<rect width="87" height="41" fill="white"/>
</clipPath>
</defs>
</svg>
