<?xml version="1.0" encoding="utf-8"?>
<svg xmlns="http://www.w3.org/2000/svg" xmlns:xlink="http://www.w3.org/1999/xlink">

    <symbol viewBox="0 0 10 6" id="arrow">
        <g fill="transparent" xmlns="http://www.w3.org/2000/svg">
            <path d="M1 1L5 5L9 1" />
        </g>
    </symbol>

    <symbol viewBox="0 0 16 40" id="logoAbreviate">
        <g xmlns="http://www.w3.org/2000/svg">
            <path d="M1.96875 14.5427V14.8294H2.25553H5.03008H5.31686V14.5427V9.08751H7.31093C8.66026 10.7232 9.67488 12.6049 10.2974 14.627L10.3598 14.8294H10.5715H13.6289H14.0152L13.9034 14.4597C13.1302 11.9025 11.8434 9.52823 10.1214 7.47952C11.6536 5.62394 12.756 3.45523 13.3488 1.12707L13.4399 0.769531H13.0709H10.1053H9.87997L9.82666 0.988464C9.37253 2.85351 8.50215 4.59311 7.28027 6.07912H5.31686V1.05631V0.769531H5.03008H2.25553H1.96875V1.05631V14.5427Z" stroke-width="0.573562"/>
            <path d="M1.02344 38.6402V38.927H1.31022H4.08477H4.37155V38.6402V33.7756C4.83119 34.1121 5.33915 34.3801 5.87944 34.5703C6.61279 34.8283 7.39079 34.9376 8.16734 34.8917C10.2436 34.8899 11.9532 34.2583 13.1427 33.0077C14.332 31.7572 14.9653 29.9258 14.9653 27.5962C14.9653 25.265 14.3177 23.4324 13.096 22.182C11.8736 20.9308 10.1139 20.3008 7.96762 20.3008C5.81934 20.3008 4.07296 20.9471 2.86469 22.1994C1.65773 23.4502 1.02344 25.2687 1.02344 27.5431V38.6402ZM7.93704 31.8605C6.82016 31.8605 5.95126 31.5042 5.35684 30.8212C4.75723 30.1323 4.40213 29.0713 4.40213 27.5962C4.40213 26.1215 4.75897 25.0604 5.35957 24.3713C5.95509 23.6881 6.8242 23.3319 7.93704 23.3319C9.04989 23.3319 9.919 23.6881 10.5145 24.3713C11.1151 25.0604 11.4719 26.1215 11.4719 27.5962C11.4719 29.0716 11.1186 30.1326 10.52 30.8214C9.92667 31.5041 9.05797 31.8605 7.93704 31.8605Z" stroke-width="0.573562"/>
        </g>
    </symbol>

    <symbol viewBox="0 0 7 11" id="arrowRight">
        <g width="7" height="11" viewBox="0 0 7 11"  xmlns="http://www.w3.org/2000/svg">
            <line x1="0.948198" y1="0.766157" x2="5.68752" y2="5.50548" stroke="black" stroke-width="1.18483"/>
            <line x1="0.897855" y1="10.1677" x2="6.03212" y2="4.99387" stroke="black" stroke-width="1.18483"/>
        </g>
    </symbol>

    <symbol viewBox="0 0 24 24" id="telegramIcon">
        <g xmlns="http://www.w3.org/2000/svg">
            <path d="M2.82262 10.7509L20.9584 4.98921C21.2308 4.90243 21.4906 5.15193 21.4153 5.42755L18.2423 17.0364C18.1862 17.2414 17.9659 17.3536 17.767 17.2782L11.3597 14.8549C11.1078 14.7596 11.0454 14.4313 11.245 14.2505L16.2713 9.69632C16.5803 9.41654 16.2468 8.92277 15.8717 9.1053L7.45764 13.1976C7.3655 13.2425 7.25889 13.2459 7.16407 13.2072L2.79573 11.4283C2.48354 11.3009 2.50122 10.853 2.82265 10.751L2.82262 10.7509ZM12.904 11.7325C13.0618 11.5955 12.8866 11.3485 12.7048 11.4519L8.69512 13.6416C8.33351 13.8475 8.1637 14.277 8.28664 14.6746L9.52522 18.8445C9.58816 19.0557 9.85334 19.1238 10.0102 18.9691L12.4823 16.6291C12.5832 16.5294 12.5511 16.3589 12.4205 16.3033L9.85539 15.0248C9.7145 14.9545 9.68678 14.7658 9.80102 14.658L12.9037 11.7325L12.904 11.7325Z" />
        </g>
    </symbol>

    <symbol viewBox="0 0 24 24" id="linkedInIcon">
        <g xmlns="http://www.w3.org/2000/svg">
            <path d="M17.0052 17.0084H14.8995V13.708C14.8995 12.9211 14.8837 11.9081 13.8013 11.9081C12.7038 11.9081 12.5363 12.7646 12.5363 13.6504V17.0084H10.4298V10.222H12.4525V11.1464H12.4802C12.763 10.6139 13.4504 10.0505 14.4776 10.0505C16.6109 10.0505 17.006 11.4554 17.006 13.2829V17.0084H17.0052ZM8.05154 9.29361C7.89079 9.29382 7.73158 9.2623 7.58304 9.20085C7.4345 9.13941 7.29955 9.04926 7.18592 8.93555C7.07229 8.82185 6.98222 8.68684 6.92088 8.53826C6.85953 8.38968 6.82811 8.23046 6.82842 8.06971C6.82858 7.8278 6.90047 7.59137 7.035 7.39032C7.16952 7.18927 7.36065 7.03262 7.5842 6.94019C7.80776 6.84776 8.0537 6.8237 8.29093 6.87104C8.52816 6.91839 8.74602 7.03502 8.91696 7.20619C9.08791 7.37735 9.20426 7.59537 9.2513 7.83266C9.29834 8.06995 9.27396 8.31586 9.18124 8.53929C9.08852 8.76273 8.93163 8.95365 8.7304 9.08792C8.52918 9.22219 8.29265 9.29377 8.05075 9.29361H8.05154ZM9.10714 17.0084H6.99514V10.222H9.10793V17.0084H9.10714ZM18.06 4.88867H5.93875C5.35722 4.88867 4.88867 5.34694 4.88867 5.91346V18.0861C4.88867 18.6526 5.35801 19.1109 5.93796 19.1109H18.0569C18.6368 19.1109 19.1109 18.6526 19.1109 18.0861V5.91346C19.1109 5.34694 18.6368 4.88867 18.0569 4.88867H18.0592H18.06Z" />
        </g>
    </symbol>

    <symbol viewBox="0 0 24 24" id="twitterIcon">
        <g xmlns="http://www.w3.org/2000/svg">
            <path d="M20.7359 6.57701C20.0808 6.86679 19.3861 7.05711 18.6747 7.14166C19.4245 6.69322 19.9857 5.98748 20.2537 5.15594C19.55 5.57471 18.7785 5.86819 17.9745 6.02694C17.4344 5.44906 16.7185 5.0658 15.9381 4.93676C15.1577 4.80771 14.3565 4.94011 13.6592 5.31336C12.9618 5.68662 12.4072 6.27982 12.0818 7.00074C11.7563 7.72167 11.6781 8.52993 11.8594 9.29986C10.4324 9.22834 9.03645 8.85751 7.76208 8.21146C6.48772 7.56541 5.36347 6.65857 4.46232 5.54982C4.14334 6.0977 3.97572 6.72051 3.97662 7.35447C3.97662 8.59877 4.60992 9.69803 5.57274 10.3416C5.00295 10.3237 4.4457 10.1698 3.94744 9.89283V9.93745C3.94761 10.7662 4.23437 11.5693 4.7591 12.2107C5.28383 12.8521 6.01424 13.2923 6.82647 13.4567C6.29753 13.6 5.74292 13.6211 5.2046 13.5184C5.43361 14.2317 5.87996 14.8556 6.48115 15.3026C7.08235 15.7496 7.80829 15.9974 8.55733 16.0113C7.81288 16.596 6.9605 17.0282 6.0489 17.2832C5.13731 17.5382 4.18439 17.6111 3.24463 17.4976C4.88512 18.5526 6.79481 19.1127 8.74526 19.1109C15.3469 19.1109 18.957 13.642 18.957 8.89911C18.957 8.74465 18.9527 8.58847 18.9459 8.43572C19.6486 7.92785 20.255 7.29871 20.7368 6.57786L20.7359 6.57701Z" fill="black"/>
        </g>
    </symbol>

    <symbol viewBox="0 0 12 11" id="smallArrow">
        <g xmlns="http://www.w3.org/2000/svg">
            <line y1="5.33239" x2="10.6635" y2="5.33239" stroke-width="1.18483"/>
            <line x1="5.9482" y1="0.765669" x2="10.6875" y2="5.50499" stroke-width="1.18483"/>
            <line x1="5.89834" y1="10.1677" x2="11.0326" y2="4.99387" stroke-width="1.18483"/>
        </g>
    </symbol>

    <symbol viewBox="0 0 16 16" id="sliderArrow">
        <g xmlns="http://www.w3.org/2000/svg">
            <line x1="10.5324" y1="2.12888" x2="4.03236" y2="8.67893" stroke-width="1.5"/>
            <line x1="10.4697" y1="14.0303" x2="4.46967" y2="8.03033" stroke-width="1.5"/>
        </g>
    </symbol>

    <symbol viewBox="0 0 16 16" id="selectArrow">
        <g xmlns="http://www.w3.org/2000/svg">
            <line x1="2.1279" y1="5.46764" x2="8.67795" y2="11.9676" stroke="black" stroke-width="1.5"/>
            <line x1="14.0303" y1="5.53033" x2="8.03033" y2="11.5303" stroke="black" stroke-width="1.5"/>
        </g>
    </symbol>

    <symbol viewBox="0 0 20 16" id="quotesIcon">
        <g xmlns="http://www.w3.org/2000/svg">
            <path d="M-0.000916593 15.4558V11.2633C-0.000916593 10.026 0.231996 8.72314 0.697821 7.35478C1.16365 5.98642 1.81143 4.67629 2.64118 3.42438C3.47093 2.17248 4.44625 1.10254 5.56715 0.21456L8.7988 2.52912C7.91083 3.8247 7.15386 5.1785 6.52791 6.59053C5.90196 8.00257 5.58898 9.53833 5.58898 11.1978V15.4558H-0.000916593ZM11.1352 15.4558V11.2633C11.1352 10.026 11.3681 8.72314 11.8339 7.35478C12.2998 5.98642 12.9476 4.67629 13.7773 3.42438C14.6071 2.17248 15.5824 1.10254 16.7033 0.21456L19.9349 2.52912C19.0469 3.8247 18.29 5.1785 17.664 6.59053C17.0381 8.00257 16.7251 9.53833 16.7251 11.1978V15.4558H11.1352Z" />
        </g>
    </symbol>

    <symbol viewBox="0 0 37 37" id="sliderLargeArrow">
        <g xmlns="http://www.w3.org/2000/svg">
            <path d="M37 19.8987V17.1013L5.39271 17.1013L17.5762 5.38103L15.529 3.5L6.68711e-07 18.5L15.529 33.5L17.5263 31.619L5.39271 19.8987L37 19.8987Z" fill="black"/>
        </g>
    </symbol>

</svg>