<?xml version="1.0" encoding="utf-8"?>
<svg xmlns="http://www.w3.org/2000/svg" xmlns:xlink="http://www.w3.org/1999/xlink">

    <symbol viewBox="0 0 10 6" id="arrow">
        <g fill="transparent" xmlns="http://www.w3.org/2000/svg">
            <path d="M1 1L5 5L9 1" />
        </g>
    </symbol>

    <symbol viewBox="0 0 16 40" id="logoAbreviate">
        <g xmlns="http://www.w3.org/2000/svg">
            <path d="M1.96875 14.5427V14.8294H2.25553H5.03008H5.31686V14.5427V9.08751H7.31093C8.66026 10.7232 9.67488 12.6049 10.2974 14.627L10.3598 14.8294H10.5715H13.6289H14.0152L13.9034 14.4597C13.1302 11.9025 11.8434 9.52823 10.1214 7.47952C11.6536 5.62394 12.756 3.45523 13.3488 1.12707L13.4399 0.769531H13.0709H10.1053H9.87997L9.82666 0.988464C9.37253 2.85351 8.50215 4.59311 7.28027 6.07912H5.31686V1.05631V0.769531H5.03008H2.25553H1.96875V1.05631V14.5427Z" stroke-width="0.573562"/>
            <path d="M1.02344 38.6402V38.927H1.31022H4.08477H4.37155V38.6402V33.7756C4.83119 34.1121 5.33915 34.3801 5.87944 34.5703C6.61279 34.8283 7.39079 34.9376 8.16734 34.8917C10.2436 34.8899 11.9532 34.2583 13.1427 33.0077C14.332 31.7572 14.9653 29.9258 14.9653 27.5962C14.9653 25.265 14.3177 23.4324 13.096 22.182C11.8736 20.9308 10.1139 20.3008 7.96762 20.3008C5.81934 20.3008 4.07296 20.9471 2.86469 22.1994C1.65773 23.4502 1.02344 25.2687 1.02344 27.5431V38.6402ZM7.93704 31.8605C6.82016 31.8605 5.95126 31.5042 5.35684 30.8212C4.75723 30.1323 4.40213 29.0713 4.40213 27.5962C4.40213 26.1215 4.75897 25.0604 5.35957 24.3713C5.95509 23.6881 6.8242 23.3319 7.93704 23.3319C9.04989 23.3319 9.919 23.6881 10.5145 24.3713C11.1151 25.0604 11.4719 26.1215 11.4719 27.5962C11.4719 29.0716 11.1186 30.1326 10.52 30.8214C9.92667 31.5041 9.05797 31.8605 7.93704 31.8605Z" stroke-width="0.573562"/>
        </g>
    </symbol>

</svg>