<svg width="32" height="19" viewBox="0 0 32 19" fill="none" xmlns="http://www.w3.org/2000/svg">
<path d="M6.24136 11.5587H3.26015V2.6151H0V0H9.4928V2.6151H6.24136V11.5587ZM3.9488 10.8701H5.54401V1.92645H8.79544V0.688642H0.688642V1.91774H3.95751L3.9488 10.8701Z" fill="black"/>
<path d="M19.9709 11.5587H16.763L16.0482 9.32718H12.5527L11.8118 11.5587H8.69983L12.8317 0H15.8913L19.9709 11.5587ZM17.2773 10.8701H19.0033L15.3945 0.688642H13.3111L9.68485 10.8614H11.3236L12.0646 8.62982H16.5626L17.2773 10.8701ZM16.179 7.45302H12.4481L14.3397 1.71725L16.179 7.45302ZM13.3983 6.75567H15.2289L14.3223 3.94008L13.3983 6.75567Z" fill="black"/>
<path d="M30.8321 11.5587H27.2494L25.384 8.20269L23.4052 11.5587H19.9446L23.658 5.67476L20.1189 0H23.658L25.3927 3.17298L27.1797 0H30.6403L27.0925 5.58759L30.8321 11.5587ZM27.6504 10.8701H29.5769L26.2644 5.58759L29.3764 0.697359H27.5807L25.3753 4.60257L23.2396 0.697359H21.3567L24.4687 5.68348L21.1998 10.8788H23.013L25.4014 6.8254L27.6504 10.8701Z" fill="black"/>
<path d="M9.14486 0.349609V2.26735H5.89342V11.211H3.60957V2.26735H0.340698V0.349609H9.14486Z" fill="black"/>
<path d="M13.0681 0.349609H15.6397L19.4838 11.2197H17.0257L16.3021 8.97943H12.3011L11.5601 11.211H9.18909L13.0681 0.349609ZM12.92 7.10528H15.7007L14.3321 2.82523L12.92 7.10528Z" fill="black"/>
<path d="M23.2061 11.211H20.5648L24.0603 5.67569L20.7392 0.349609H23.4501L25.3853 3.88871L27.3815 0.349609H30.0053L26.6754 5.58852L30.2058 11.211H27.4512L25.3853 7.50626L23.2061 11.211Z" fill="black"/>
<path d="M5.17874 14.6977C5.11772 14.6629 5.01311 14.6367 4.86492 14.6367H4.07168L3.89734 15.4823H4.65572C4.81262 15.4823 4.92594 15.4648 5.01311 15.43C5.1613 15.3689 5.24847 15.2556 5.29206 15.0726C5.32693 14.8895 5.29206 14.7675 5.17874 14.6977Z" fill="black"/>
<path d="M1.45641 12.6055L0.244751 18.7684H30.7891L32.0007 12.6055H1.45641ZM6.0677 14.9939C6.03283 15.1595 5.95438 15.3165 5.84106 15.4821C5.73645 15.6303 5.59698 15.7262 5.42264 15.7959C5.53596 15.8569 5.61442 15.9441 5.64928 16.0487C5.69287 16.1707 5.69287 16.3451 5.64057 16.5891L5.59698 16.8158C5.57083 16.964 5.5534 17.0686 5.5534 17.1209C5.5534 17.1993 5.57955 17.2516 5.63185 17.2865L5.64928 17.2952L5.62313 17.426H4.7863V17.3998C4.77758 17.3214 4.77758 17.2603 4.77758 17.2168C4.77758 17.1209 4.7863 17.025 4.81245 16.9204L4.87347 16.6066C4.91706 16.4061 4.90834 16.2666 4.85604 16.2056C4.80374 16.1446 4.6817 16.1097 4.47249 16.1097H3.76641L3.48747 17.426H2.74653L3.47004 14.0089H5.1437C5.37906 14.0176 5.56211 14.0438 5.67543 14.0961C5.79747 14.1571 5.89336 14.2355 5.9631 14.3401C6.02411 14.4273 6.05898 14.5232 6.07642 14.6365C6.09385 14.7324 6.09385 14.8632 6.0677 14.9939ZM9.69397 14.654H7.9157L7.77623 15.3077H9.41502L9.27555 15.9441H7.64547L7.47113 16.7548H9.33657L9.1971 17.4172H6.59072L7.31423 14.0002H9.84215L9.69397 14.654ZM13.1895 15.0375L13.1808 15.0637H12.4485L12.4573 15.0288C12.4834 14.837 12.4311 14.7063 12.3003 14.6278C12.2045 14.5755 12.0824 14.5494 11.9255 14.5494C11.7512 14.5494 11.603 14.5842 11.4809 14.654C11.3676 14.7237 11.2892 14.8196 11.2717 14.9416C11.2456 15.0549 11.2805 15.1247 11.3676 15.177C11.4286 15.2206 11.5594 15.2554 11.7686 15.3165L12.3178 15.4559C12.5619 15.5169 12.7449 15.6041 12.8495 15.7087C13.0239 15.8743 13.0762 16.1097 13.0151 16.4235C12.9454 16.7373 12.7711 16.9988 12.4921 17.208C12.2132 17.4172 11.8471 17.5219 11.4112 17.5219C10.9666 17.5219 10.6354 17.4172 10.4175 17.2168C10.2083 17.0075 10.1385 16.7286 10.2083 16.3625L10.217 16.3363H10.9405V16.3625C10.9318 16.5107 10.9492 16.624 10.9841 16.6937C11.0625 16.8245 11.2369 16.8855 11.4984 16.8855C11.664 16.8855 11.7948 16.8681 11.8994 16.8332C12.0999 16.7635 12.2132 16.6414 12.2568 16.4671C12.2829 16.3712 12.248 16.2928 12.1783 16.2405C12.0999 16.1794 11.9604 16.1271 11.7599 16.0923L11.4199 16.0138C11.08 15.9354 10.8533 15.8482 10.74 15.7523C10.5395 15.5867 10.4785 15.3339 10.5482 14.9939C10.6093 14.6888 10.7749 14.4273 11.0451 14.2268C11.3066 14.0263 11.664 13.9217 12.0911 13.9217C12.4485 13.9217 12.7449 14.0176 12.9541 14.2094C13.1808 14.3925 13.2505 14.6714 13.1895 15.0375ZM14.4273 17.4172H13.6689L14.3924 14.0002H15.1508L14.4273 17.4172ZM18.7684 15.6303C18.6725 16.0835 18.4981 16.4671 18.254 16.7809C17.9228 17.1993 17.487 17.4172 16.9726 17.4172H15.4908L16.2143 14.0002H17.6874C17.8967 14.0089 18.071 14.0263 18.2017 14.0786C18.4284 14.1571 18.594 14.3053 18.6986 14.5145C18.7858 14.6888 18.8294 14.8719 18.8294 15.0637C18.8207 15.2729 18.8032 15.4559 18.7684 15.6303ZM22.4556 14.654H20.6774L20.5379 15.3077H22.168L22.0285 15.9441H20.3984L20.2241 16.7548H22.0895L21.9501 17.4172H19.3437L20.0672 14.0002H22.5951L22.4556 14.654ZM25.6809 17.4172H24.9313L24.9225 17.3998L24.0944 15.1072L23.6063 17.4172H22.8915L23.615 14.0002H24.3908L25.2015 16.2666L25.6896 14.0002H26.4044L25.6809 17.4172ZM29.8302 14.654H28.8278L28.2437 17.4172H27.4766L28.0607 14.654H27.0495L27.189 14.0002H29.9697L29.8302 14.654Z" fill="black"/>
<path d="M17.4345 14.6445H16.8156L16.3623 16.7802H16.9725C17.2863 16.7802 17.5478 16.6146 17.7483 16.3008C17.8616 16.1264 17.9314 15.9172 17.9837 15.6644C18.0534 15.3332 18.0621 15.0717 17.9924 14.8886C17.9314 14.7317 17.7396 14.6445 17.4345 14.6445Z" fill="black"/>
</svg>
