<svg width="82" height="17" viewBox="0 0 82 17" fill="none" xmlns="http://www.w3.org/2000/svg">
<path d="M35.9126 9.37543V12.5654H34.2006V9.37543L30.5959 3.41016H32.4248L35.1151 7.87611L37.8266 3.41016H39.5066L35.9126 9.37543Z" fill="#1D1D1B"/>
<path d="M40.9101 12.2458C40.3533 11.9526 39.8921 11.5062 39.5809 10.9592C39.2672 10.393 39.1025 9.75637 39.1025 9.10906C39.1025 8.46175 39.2672 7.82502 39.5809 7.25882C39.8955 6.71724 40.3561 6.27512 40.9101 5.98288C41.5006 5.67507 42.1581 5.51801 42.8241 5.52566C43.4934 5.51801 44.1543 5.67502 44.7487 5.98288C45.3036 6.27765 45.767 6.71894 46.0885 7.25882C46.3956 7.82715 46.5564 8.46305 46.5564 9.10906C46.5564 9.75507 46.3956 10.3909 46.0885 10.9592C45.7703 11.5044 45.3063 11.95 44.7487 12.2458C44.1562 12.5588 43.494 12.7162 42.8241 12.7031C42.1576 12.7158 41.4989 12.5583 40.9101 12.2458V12.2458ZM44.3233 10.6934C44.7071 10.2507 44.9184 9.68436 44.9184 9.09842C44.9184 8.51247 44.7071 7.94617 44.3233 7.50343C44.1294 7.30354 43.8959 7.14636 43.6377 7.04199C43.3795 6.93761 43.1024 6.88835 42.8241 6.89732C42.5472 6.88785 42.2715 6.93696 42.015 7.0414C41.7585 7.14585 41.5268 7.30329 41.3354 7.50343C40.9516 7.94617 40.7403 8.51247 40.7403 9.09842C40.7403 9.68436 40.9516 10.2507 41.3354 10.6934C41.5268 10.8935 41.7585 11.051 42.015 11.1554C42.2715 11.2599 42.5472 11.309 42.8241 11.2995C43.1024 11.3085 43.3795 11.2592 43.6377 11.1548C43.8959 11.0505 44.1294 10.8933 44.3233 10.6934Z" fill="#1D1D1B"/>
<path d="M54.9134 5.61133V12.608H53.3609V11.7148C53.0944 12.0346 52.7554 12.2861 52.372 12.4485C51.9688 12.6203 51.5344 12.7073 51.096 12.7038C50.6831 12.7457 50.266 12.6937 49.876 12.5517C49.4859 12.4097 49.1331 12.1814 48.8437 11.8839C48.5543 11.5863 48.3358 11.2271 48.2048 10.8333C48.0737 10.4394 48.0335 10.0211 48.0869 9.60944V5.61133H49.7244V9.38612C49.6832 9.89098 49.8352 10.3926 50.1497 10.7897C50.3055 10.9512 50.4947 11.0768 50.7041 11.1576C50.9135 11.2384 51.1379 11.2725 51.3619 11.2576C51.6191 11.2704 51.8763 11.2287 52.1163 11.1353C52.3564 11.0418 52.5739 10.8987 52.7548 10.7153C52.9413 10.5025 53.0834 10.2547 53.1729 9.98626C53.2624 9.71786 53.2974 9.43432 53.2759 9.15222V5.61133H54.9134Z" fill="#1D1D1B"/>
<path d="M63.2295 12.6073L61.358 9.91701H61.0071H58.9336V12.586H57.2217V3.4095H61.0071C61.7363 3.38315 62.4623 3.51746 63.1338 3.80292C63.6907 4.0328 64.1652 4.42567 64.4949 4.93001C64.8155 5.45411 64.978 6.05967 64.9627 6.67388C64.9768 7.3057 64.8028 7.92745 64.4629 8.46026C64.1077 8.97281 63.6026 9.36288 63.0168 9.57681L65.1435 12.586L63.2295 12.6073ZM62.6128 5.34472C62.1224 4.99262 61.5243 4.82332 60.9221 4.86621H58.9336V8.5347H60.9221C61.5243 8.5776 62.1224 8.4083 62.6128 8.05619C62.8097 7.8907 62.9652 7.68143 63.0667 7.44509C63.1683 7.20875 63.2131 6.95194 63.1976 6.69517C63.2139 6.43985 63.1694 6.1843 63.0678 5.94953C62.9661 5.71476 62.8102 5.50747 62.6128 5.34472V5.34472Z" fill="#1D1D1B"/>
<path d="M73.2137 9.62998H67.7163C67.7991 10.1232 68.0696 10.5653 68.4712 10.8634C68.9162 11.1733 69.4499 11.3301 69.9918 11.31C70.3437 11.3205 70.6941 11.2589 71.0214 11.1291C71.3487 10.9993 71.646 10.804 71.8951 10.5551L72.7671 11.6184C72.448 11.9976 72.0384 12.2902 71.5761 12.469C71.0572 12.6678 70.5049 12.7653 69.9493 12.7562C69.2449 12.7743 68.5469 12.6172 67.9183 12.2989C67.3501 12.0102 66.8775 11.5634 66.5573 11.0123C66.2332 10.4503 66.0678 9.81079 66.0788 9.16212C66.0706 8.51851 66.232 7.88404 66.5466 7.32252C66.8477 6.78246 67.2932 6.33697 67.8333 6.03594C68.4091 5.72952 69.0524 5.57233 69.7047 5.57871C70.344 5.5672 70.975 5.72494 71.5336 6.03594C72.0636 6.32997 72.4988 6.76888 72.7883 7.3013C73.0987 7.88709 73.2559 8.54179 73.2456 9.20463C73.2456 9.25779 73.235 9.42795 73.2137 9.62998ZM68.3649 7.3013C67.9984 7.61981 67.7634 8.06323 67.7056 8.54537H71.6825C71.626 8.06824 71.3949 7.62891 71.0338 7.31194C70.6669 6.99169 70.1913 6.82424 69.7047 6.84407C69.2174 6.82894 68.7413 6.99143 68.3649 7.3013V7.3013Z" fill="#1D1D1B"/>
<path d="M81.8262 5.61099V11.5444C81.8262 14.0113 80.5644 15.2447 78.0408 15.2447C77.3941 15.2478 76.7501 15.162 76.1268 14.9895C75.5854 14.85 75.0785 14.6002 74.6381 14.2558L75.3718 13.0224C75.7166 13.2955 76.1098 13.5011 76.5309 13.6285C76.9907 13.7803 77.4714 13.8592 77.9557 13.8624C78.567 13.9126 79.1738 13.7218 79.6464 13.3307C79.8388 13.115 79.9851 12.8623 80.0766 12.588C80.168 12.3138 80.2025 12.0238 80.1781 11.7358V11.3636C79.888 11.6805 79.5221 11.9183 79.1147 12.0547C78.6913 12.2203 78.2402 12.3034 77.7856 12.2993C77.161 12.3051 76.5443 12.1591 75.9885 11.874C75.4594 11.6005 75.0173 11.1842 74.7125 10.6724C74.3968 10.1346 74.2349 9.5203 74.2447 8.89669C74.2353 8.27648 74.3972 7.66565 74.7125 7.13154C75.0168 6.62465 75.4595 6.21519 75.9885 5.95126C76.5425 5.66119 77.1604 5.51498 77.7856 5.52597C78.2621 5.51921 78.7353 5.6059 79.1785 5.78116C79.5926 5.93604 79.9591 6.19622 80.2419 6.53608V5.61099H81.8262ZM79.6145 10.3534C79.8108 10.1663 79.9653 9.93972 80.0679 9.68867C80.1705 9.43762 80.2189 9.16776 80.2099 8.89669C80.2192 8.63032 80.1708 8.36511 80.068 8.11919C79.9652 7.87326 79.8105 7.6524 79.6145 7.47181C79.182 7.11485 78.6387 6.91964 78.0779 6.91964C77.5172 6.91964 76.974 7.11485 76.5415 7.47181C76.3455 7.6524 76.1907 7.87326 76.088 8.11919C75.9852 8.36511 75.9367 8.63032 75.946 8.89669C75.937 9.16776 75.9854 9.43762 76.088 9.68867C76.1907 9.93972 76.3452 10.1663 76.5415 10.3534C76.974 10.7104 77.5172 10.9056 78.0779 10.9056C78.6387 10.9056 79.182 10.7104 79.6145 10.3534V10.3534Z" fill="#1D1D1B"/>
<path d="M25.3109 9.8425L18.9309 16.2225C18.7393 16.4141 18.5116 16.5659 18.261 16.669C18.1384 16.7205 18.0098 16.7562 17.8782 16.7753C17.8114 16.7864 17.7431 16.7864 17.6762 16.7753C17.5103 16.7966 17.3424 16.7966 17.1765 16.7753C16.7512 16.7027 16.3581 16.5025 16.0494 16.2012L15.9324 16.0736L13.2847 13.4365L16.7618 9.95945C16.9695 9.75555 17.1344 9.51231 17.247 9.24393C17.3596 8.97555 17.4176 8.68738 17.4176 8.39633C17.4176 8.10528 17.3596 7.81718 17.247 7.5488C17.1344 7.28042 16.9695 7.03717 16.7618 6.83327L13.2847 3.35617L15.9324 0.719147L16.0494 0.591553C16.3652 0.284115 16.7715 0.0864826 17.2083 0.0279589C17.4301 -0.00931962 17.6565 -0.00931962 17.8782 0.0279589C18.1344 0.0853427 18.379 0.186063 18.6013 0.325721C18.7193 0.399787 18.8297 0.485253 18.9309 0.580909L25.3109 6.96087C25.5048 7.14739 25.6592 7.37112 25.7645 7.61869C25.8699 7.86627 25.9242 8.13258 25.9242 8.40165C25.9242 8.67072 25.8699 8.93703 25.7645 9.18461C25.6592 9.43218 25.5048 9.65598 25.3109 9.8425V9.8425Z" fill="#1D1D1B"/>
<path d="M16.7827 10.0123L10.6685 16.1264C10.4646 16.3341 10.2214 16.499 9.95302 16.6116C9.68464 16.7243 9.39648 16.7823 9.10542 16.7823C8.81437 16.7823 8.52627 16.7243 8.25789 16.6116C7.98951 16.499 7.74627 16.3341 7.54237 16.1264L1.42824 10.0123C1.01397 9.59756 0.78125 9.03538 0.78125 8.44921C0.78125 7.86303 1.01397 7.30079 1.42824 6.88608L7.54237 0.771958C7.95708 0.357689 8.51925 0.125 9.10542 0.125C9.6916 0.125 10.2538 0.357689 10.6685 0.771958L16.7827 6.88608C16.9904 7.08998 17.1553 7.33323 17.2679 7.60161C17.3806 7.86999 17.4386 8.15816 17.4386 8.44921C17.4386 8.74026 17.3806 9.02836 17.2679 9.29674C17.1553 9.56512 16.9904 9.80837 16.7827 10.0123V10.0123Z" fill="#303031"/>
<path d="M16.783 10.0126L13.3059 13.4897L9.82881 10.0126C9.41454 9.59785 9.18188 9.03568 9.18188 8.4495C9.18188 7.86332 9.41454 7.30109 9.82881 6.88638L13.3059 3.41992L16.783 6.88638C16.9907 7.09027 17.1556 7.33352 17.2683 7.6019C17.3809 7.87028 17.4389 8.15845 17.4389 8.4495C17.4389 8.74055 17.3809 9.02865 17.2683 9.29703C17.1556 9.56541 16.9907 9.80866 16.783 10.0126Z" fill="#303031"/>
</svg>
